{
.appVersion = "3087";
DisplayStrings = (

glyphs = (
{
glyphname = A;
layers = (
{
anchors = (
{
name = bottom;
position = "{338, 0}";
},
{
name = ogonek;
position = "{601, 0}";
},
{
name = top;
position = "{340, 680}";
}
);
background = {
paths = (
{
closed = 0;
nodes = (
"606 0 LINE",
"342 675 LINE",
"338 675 LINE",
"70 0 LINE"
);
},
{
closed = 0;
nodes = (
"155 213 LINE",
"522 213 LINE"
);
}
);
};
layerId = master01;
paths = (
{
closed = 0;
nodes = (
"606 0 LINE",
"342 675 LINE",
"338 675 LINE",
"70 0 LINE"
);
},
{
closed = 0;
nodes = (
"155 213 LINE",
"522 213 LINE"
);
}
);
width = 676;
}
);
leftKerningGroup = A;
rightKerningGroup = A;
unicode = 0041;
},
{
glyphname = AE;
layers = (
{
background = {
paths = (
{
closed = 0;
nodes = (
"41 10 LINE",
"474 670 LINE",
"478 670 LINE"
);
},
{
closed = 0;
nodes = (
"478 223 LINE",
"181 223 LINE"
);
},
{
closed = 0;
nodes = (
"819 10 LINE",
"478 10 LINE",
"478 670 LINE",
"819 670 LINE"
);
},
{
closed = 0;
nodes = (
"802 356 LINE",
"478 356 LINE"
);
}
);
};
layerId = master01;
paths = (
{
closed = 0;
nodes = (
"45 0 LINE",
"474 670 LINE",
"488 670 LINE"
);
},
{
closed = 0;
nodes = (
"182 213 LINE",
"488 213 LINE"
);
},
{
closed = 0;
nodes = (
"829 10 LINE",
"488 10 LINE",
"488 670 LINE",
"829 670 LINE"
);
},
{
closed = 0;
nodes = (
"488 356 LINE",
"812 356 LINE"
);
}
);
width = 919;
},
{
anchors = (
{
name = bottom;
position = "{303, 0}";
},
{
name = ogonek;
position = "{566, 0}";
},
{
name = top;
position = "{302, 680}";
}
);
associatedMasterId = master01;
background = {
components = (
{
name = A;
transform = "{1, 0, 0, 1, -25, 0}";
}
);
paths = (
{
closed = 0;
nodes = (
"425 358 LINE",
"724 358 LINE"
);
},
{
closed = 0;
nodes = (
"302 670 LINE",
"739 670 LINE"
);
},
{
closed = 0;
nodes = (
"744 10 LINE",
"557 10 LINE",
"302 670 LINE",
"300 670 LINE",
"37 5 LINE"
);
},
{
closed = 0;
nodes = (
"119 214 LINE",
"478 214 LINE"
);
}
);
};
layerId = "95681CD2-5D1B-4352-8127-F26CE23EF520";
name = "Aug 30 21, 12:29";
paths = (
{
closed = 0;
nodes = (
"744 10 LINE",
"567 10 LINE",
"307 670 LINE",
"303 670 LINE",
"35 0 LINE"
);
},
{
closed = 0;
nodes = (
"727 358 LINE",
"431 358 LINE"
);
},
{
closed = 0;
nodes = (
"307 670 LINE",
"744 670 LINE"
);
},
{
closed = 0;
nodes = (
"490 213 LINE",
"118 213 LINE"
);
}
);
width = 824;
}
);
leftKerningGroup = AE;
leftMetricsKey = "=A-25";
rightKerningGroup = E;
rightMetricsKey = E;
unicode = 00C6;
},
{
glyphname = B;
layers = (
{
background = {
paths = (
{
closed = 0;
nodes = (
"330 356 LINE",
"428 356 OFFCURVE",
"514 406 OFFCURVE",
"514 520 CURVE SMOOTH",
"514 601 OFFCURVE",
"471 680 OFFCURVE",
"301 680 CURVE SMOOTH",
"140 680 LINE",
"140 0 LINE"
);
},
{
closed = 0;
nodes = (
"140 0 LINE",
"302 0 LINE SMOOTH",
"475 0 OFFCURVE",
"534 77 OFFCURVE",
"534 179 CURVE SMOOTH",
"534 286 OFFCURVE",
"469 356 OFFCURVE",
"310 356 CURVE SMOOTH",
"140 356 LINE"
);
}
);
};
layerId = master01;
paths = (
{
closed = 0;
nodes = (
"330 356 LINE",
"428 356 OFFCURVE",
"514 406 OFFCURVE",
"514 520 CURVE SMOOTH",
"514 601 OFFCURVE",
"471 680 OFFCURVE",
"301 680 CURVE SMOOTH",
"140 680 LINE",
"140 0 LINE"
);
},
{
closed = 0;
nodes = (
"140 0 LINE",
"302 0 LINE SMOOTH",
"475 0 OFFCURVE",
"534 77 OFFCURVE",
"534 179 CURVE SMOOTH",
"534 286 OFFCURVE",
"469 356 OFFCURVE",
"310 356 CURVE SMOOTH",
"140 356 LINE"
);
}
);
width = 634;
}
);
leftKerningGroup = H;
leftMetricsKey = H;
rightKerningGroup = B;
unicode = 0042;
},
{
glyphname = C;
layers = (
{
anchors = (
{
name = bottom;
position = "{352, 0}";
},
{
name = top;
position = "{357, 680}";
}
);
background = {
components = (
{
name = O;
}
);
paths = (
{
closed = 0;
nodes = (
"566 537 LINE",
"529 631 OFFCURVE",
"460 680 OFFCURVE",
"358 680 CURVE SMOOTH",
"187 680 OFFCURVE",
"95 544 OFFCURVE",
"95 341 CURVE SMOOTH",
"95 117 OFFCURVE",
"208 0 OFFCURVE",
"358 0 CURVE SMOOTH",
"475 0 OFFCURVE",
"552 71 OFFCURVE",
"580 153 CURVE"
);
}
);
};
layerId = master01;
paths = (
{
closed = 0;
nodes = (
"566 537 LINE",
"529 631 OFFCURVE",
"460 680 OFFCURVE",
"358 680 CURVE SMOOTH",
"187 680 OFFCURVE",
"95 544 OFFCURVE",
"95 341 CURVE SMOOTH",
"95 117 OFFCURVE",
"208 0 OFFCURVE",
"358 0 CURVE SMOOTH",
"475 0 OFFCURVE",
"552 71 OFFCURVE",
"580 153 CURVE"
);
}
);
width = 665;
}
);
leftKerningGroup = O;
leftMetricsKey = O;
rightKerningGroup = O;
rightMetricsKey = "=O-10";
unicode = 0043;
},
{
glyphname = D;
layers = (
{
anchors = (
{
name = bottom;
position = "{354, 0}";
},
{
name = center;
position = "{354, 340}";
},
{
name = top;
position = "{354, 680}";
}
);
background = {
paths = (
{
closed = 0;
nodes = (
"140 0 LINE",
"260 0 LINE SMOOTH",
"440 0 OFFCURVE",
"607 96 OFFCURVE",
"608 339 CURVE SMOOTH",
"609 549 OFFCURVE",
"484 680 OFFCURVE",
"287 680 CURVE SMOOTH",
"140 680 LINE"
);
},
{
closed = 0;
nodes = (
"140 0 LINE",
"140 680 LINE"
);
}
);
};
layerId = master01;
paths = (
{
closed = 0;
nodes = (
"140 0 LINE",
"260 0 LINE SMOOTH",
"440 0 OFFCURVE",
"607 96 OFFCURVE",
"608 339 CURVE SMOOTH",
"609 549 OFFCURVE",
"484 680 OFFCURVE",
"287 680 CURVE SMOOTH",
"140 680 LINE"
);
},
{
closed = 0;
nodes = (
"140 0 LINE",
"140 680 LINE"
);
}
);
width = 693;
}
);
leftKerningGroup = H;
leftMetricsKey = H;
rightKerningGroup = O;
rightMetricsKey = "=O-10";
unicode = 0044;
},
{
glyphname = Eth;
layers = (
{
components = (
{
name = D;
transform = "{1, 0, 0, 1, 20, 0}";
}
);
layerId = master01;
paths = (
{
closed = 0;
nodes = (
"45 357 LINE",
"387 357 LINE"
);
}
);
width = 713;
}
);
leftKerningGroup = Eth;
rightKerningGroup = O;
rightMetricsKey = "=O-10";
unicode = 00D0;
},
{
glyphname = E;
layers = (
{
anchors = (
{
name = bottom;
position = "{336, 10}";
},
{
name = ogonek;
position = "{441, 10}";
},
{
name = top;
position = "{316, 680}";
},
{
name = topleft;
position = "{30, 696}";
}
);
background = {
paths = (
{
closed = 0;
nodes = (
"501 10 LINE",
"140 10 LINE",
"140 670 LINE",
"501 670 LINE"
);
},
{
closed = 0;
nodes = (
"140 356 LINE",
"484 356 LINE"
);
}
);
};
layerId = master01;
paths = (
{
closed = 0;
nodes = (
"501 10 LINE",
"140 10 LINE",
"140 670 LINE",
"501 670 LINE"
);
},
{
closed = 0;
nodes = (
"140 356 LINE",
"484 356 LINE"
);
}
);
width = 591;
}
);
leftKerningGroup = H;
leftMetricsKey = H;
rightKerningGroup = E;
unicode = 0045;
},
{
glyphname = F;
layers = (
{
background = {
paths = (
{
closed = 0;
nodes = (
"140 670 LINE",
"481 670 LINE"
);
},
{
closed = 0;
nodes = (
"140 0 LINE",
"140 670 LINE"
);
},
{
closed = 0;
nodes = (
"140 347 LINE",
"464 347 LINE"
);
}
);
};
layerId = master01;
paths = (
{
closed = 0;
nodes = (
"140 0 LINE",
"140 670 LINE",
"481 670 LINE"
);
},
{
closed = 0;
nodes = (
"140 347 LINE",
"464 347 LINE"
);
}
);
width = 551;
}
);
leftKerningGroup = H;
leftMetricsKey = H;
rightKerningGroup = F;
unicode = 0046;
},
{
glyphname = G;
layers = (
{
anchors = (
{
name = bottom;
position = "{336, 0}";
},
{
name = top;
position = "{356, 680}";
}
);
background = {
paths = (
{
closed = 0;
nodes = (
"566 537 LINE",
"529 631 OFFCURVE",
"460 680 OFFCURVE",
"358 680 CURVE SMOOTH",
"196 680 OFFCURVE",
"95 556 OFFCURVE",
"95 340 CURVE SMOOTH",
"95 152 OFFCURVE",
"169 0 OFFCURVE",
"363 0 CURVE SMOOTH",
"443 0 OFFCURVE",
"509 26 OFFCURVE",
"560 57 CURVE",
"560 334 LINE",
"383 334 LINE"
);
}
);
};
layerId = master01;
paths = (
{
closed = 0;
nodes = (
"566 537 LINE",
"529 631 OFFCURVE",
"460 680 OFFCURVE",
"358 680 CURVE SMOOTH",
"196 680 OFFCURVE",
"95 556 OFFCURVE",
"95 340 CURVE SMOOTH",
"95 152 OFFCURVE",
"169 0 OFFCURVE",
"363 0 CURVE SMOOTH",
"443 0 OFFCURVE",
"509 26 OFFCURVE",
"560 57 CURVE",
"560 334 LINE",
"383 334 LINE"
);
}
);
width = 676;
}
);
leftKerningGroup = O;
leftMetricsKey = O;
rightKerningGroup = O;
unicode = 0047;
},
{
glyphname = H;
layers = (
{
anchors = (
{
name = bottom;
position = "{353, 0}";
},
{
name = center;
position = "{353, 340}";
},
{
name = top;
position = "{353, 680}";
},
{
name = topleft;
position = "{30, 680}";
}
);
background = {
paths = (
{
closed = 0;
nodes = (
"566 0 LINE",
"566 680 LINE"
);
},
{
closed = 0;
nodes = (
"140 0 LINE",
"140 680 LINE"
);
},
{
closed = 0;
nodes = (
"140 365 LINE",
"566 365 LINE"
);
}
);
};
layerId = master01;
paths = (
{
closed = 0;
nodes = (
"566 0 LINE",
"566 680 LINE"
);
},
{
closed = 0;
nodes = (
"140 0 LINE",
"140 680 LINE"
);
},
{
closed = 0;
nodes = (
"140 365 LINE",
"566 365 LINE"
);
}
);
width = 706;
}
);
leftKerningGroup = H;
rightKerningGroup = H;
unicode = 0048;
},
{
glyphname = Hbar;
layers = (
{
components = (
{
name = H;
}
);
layerId = master01;
paths = (
{
closed = 0;
nodes = (
"40 528 LINE",
"666 528 LINE"
);
}
);
width = 706;
}
);
leftKerningGroup = Hbar;
rightKerningGroup = Hbar;
unicode = 0126;
},
{
glyphname = I;
layers = (
{
anchors = (
{
name = bottom;
position = "{140, 0}";
},
{
name = ogonek;
position = "{140, 0}";
},
{
name = top;
position = "{140, 680}";
},
{
name = topleft;
position = "{29, 680}";
}
);
background = {
paths = (
{
closed = 0;
nodes = (
"140 0 LINE",
"140 680 LINE",
"139 680 LINE"
);
}
);
};
layerId = master01;
paths = (
{
closed = 0;
nodes = (
"140 0 LINE",
"140 680 LINE"
);
}
);
width = 280;
},
{
anchors = (
{
name = bottom;
position = "{141, 0}";
},
{
name = ogonek;
position = "{141, 0}";
},
{
name = top;
position = "{141, 680}";
},
{
name = topleft;
position = "{30, 680}";
}
);
associatedMasterId = master01;
background = {
paths = (
{
closed = 0;
nodes = (
"141 0 LINE",
"141 680 LINE",
"140 680 LINE"
);
}
);
};
layerId = "2540E5CF-F0C6-4471-A8C4-0E10DBAD292A";
name = "Sep 10 21, 11:13";
paths = (
{
closed = 0;
nodes = (
"141 0 LINE",
"141 680 LINE",
"140 681 LINE"
);
}
);
width = 281;
}
);
leftKerningGroup = H;
leftMetricsKey = H;
rightKerningGroup = H;
rightMetricsKey = H;
unicode = 0049;
},
{
glyphname = J;
layers = (
{
anchors = (
{
name = bottom;
position = "{181, 0}";
},
{
name = top;
position = "{231, 680}";
}
);
background = {
paths = (
{
closed = 0;
nodes = (
"50 29 LINE SMOOTH",
"73 7 OFFCURVE",
"103 0 OFFCURVE",
"128 0 CURVE SMOOTH",
"185 0 OFFCURVE",
"231 35 OFFCURVE",
"231 138 CURVE SMOOTH",
"231 680 LINE"
);
}
);
};
layerId = master01;
paths = (
{
closed = 0;
nodes = (
"50 29 LINE SMOOTH",
"73 7 OFFCURVE",
"103 0 OFFCURVE",
"128 0 CURVE SMOOTH",
"185 0 OFFCURVE",
"231 35 OFFCURVE",
"231 138 CURVE SMOOTH",
"231 680 LINE"
);
}
);
width = 361;
}
);
leftKerningGroup = J;
rightKerningGroup = H;
unicode = 004A;
},
{
glyphname = K;
layers = (
{
anchors = (
{
name = bottom;
position = "{296, 0}";
},
{
name = top;
position = "{296, 680}";
}
);
background = {
paths = (
{
closed = 0;
nodes = (
"527 0 LINE",
"191 359 LINE",
"503 680 LINE"
);
},
{
closed = 0;
nodes = (
"140 0 LINE",
"140 680 LINE"
);
}
);
};
layerId = master01;
paths = (
{
closed = 0;
nodes = (
"527 0 LINE",
"191 359 LINE",
"503 680 LINE"
);
},
{
closed = 0;
nodes = (
"140 0 LINE",
"140 680 LINE"
);
}
);
width = 577;
}
);
leftKerningGroup = H;
leftMetricsKey = H;
rightKerningGroup = K;
unicode = 004B;
},
{
glyphname = L;
layers = (
{
anchors = (
{
name = bottom;
position = "{254, 0}";
},
{
name = center;
position = "{254, 340}";
},
{
name = top;
position = "{208, 680}";
},
{
name = topright;
position = "{333, 734}";
}
);
layerId = master01;
paths = (
{
closed = 0;
nodes = (
"458 10 LINE",
"140 10 LINE",
"140 680 LINE"
);
}
);
width = 508;
}
);
leftKerningGroup = H;
leftMetricsKey = H;
rightKerningGroup = L;
unicode = 004C;
},
{
glyphname = Lslash;
layers = (
{
components = (
{
name = L;
transform = "{1, 0, 0, 1, 15, 0}";
}
);
layerId = master01;
paths = (
{
closed = 0;
nodes = (
"50 297 LINE",
"352 397 LINE"
);
}
);
width = 523;
}
);
leftKerningGroup = H;
rightKerningGroup = L;
rightMetricsKey = L;
unicode = 0141;
},
{
glyphname = M;
layers = (
{
background = {
paths = (
{
closed = 0;
nodes = (
"722 0 LINE",
"722 680 LINE",
"718 680 LINE",
"433 30 LINE",
"429 30 LINE",
"144 680 LINE",
"140 680 LINE",
"140 0 LINE"
);
}
);
};
layerId = master01;
paths = (
{
closed = 0;
nodes = (
"722 0 LINE",
"722 680 LINE",
"718 680 LINE",
"433 30 LINE",
"429 30 LINE",
"144 680 LINE",
"140 680 LINE",
"140 0 LINE"
);
}
);
width = 862;
}
);
leftKerningGroup = H;
leftMetricsKey = H;
rightKerningGroup = H;
rightMetricsKey = H;
unicode = 004D;
},
{
glyphname = N;
layers = (
{
anchors = (
{
name = bottom;
position = "{370, 0}";
},
{
name = top;
position = "{370, 680}";
}
);
background = {
paths = (
{
closed = 0;
nodes = (
"140 0 LINE",
"140 680 LINE",
"144 680 LINE",
"596 0 LINE",
"600 0 LINE",
"599 680 LINE"
);
}
);
};
layerId = master01;
paths = (
{
closed = 0;
nodes = (
"140 0 LINE",
"140 680 LINE",
"144 680 LINE",
"596 0 LINE",
"600 0 LINE",
"599 680 LINE"
);
}
);
width = 740;
}
);
leftKerningGroup = H;
leftMetricsKey = H;
rightKerningGroup = H;
rightMetricsKey = H;
unicode = 004E;
},
{
glyphname = Eng;
layers = (
{
components = (
{
name = N;
}
);
layerId = master01;
paths = (
{
closed = 0;
nodes = (
"442 -163 LINE",
"457 -177 OFFCURVE",
"481 -188 OFFCURVE",
"514 -188 CURVE SMOOTH",
"577 -188 OFFCURVE",
"600 -150 OFFCURVE",
"600 -81 CURVE SMOOTH",
"600 0 LINE"
);
}
);
width = 740;
}
);
leftKerningGroup = H;
leftMetricsKey = N;
rightKerningGroup = H;
rightMetricsKey = N;
unicode = 014A;
},
{
glyphname = O;
layers = (
{
anchors = (
{
name = bottom;
position = "{358, 0}";
},
{
name = center;
position = "{358, 340}";
},
{
name = ogonek;
position = "{358, 0}";
},
{
name = top;
position = "{358, 680}";
},
{
name = topleft;
position = "{25, 696}";
},
{
name = topright;
position = "{691, 696}";
}
);
background = {
paths = (
{
closed = 0;
nodes = (
"357 680 LINE",
"168 680 OFFCURVE",
"95 501 OFFCURVE",
"95 341 CURVE SMOOTH",
"95 207 OFFCURVE",
"147 0 OFFCURVE",
"358 0 CURVE SMOOTH",
"569 0 OFFCURVE",
"621 207 OFFCURVE",
"621 341 CURVE SMOOTH",
"621 501 OFFCURVE",
"548 680 OFFCURVE",
"359 680 CURVE"
);
}
);
};
layerId = master01;
paths = (
{
closed = 0;
nodes = (
"357 680 LINE",
"168 680 OFFCURVE",
"95 501 OFFCURVE",
"95 341 CURVE SMOOTH",
"95 207 OFFCURVE",
"147 0 OFFCURVE",
"358 0 CURVE SMOOTH",
"569 0 OFFCURVE",
"621 207 OFFCURVE",
"621 341 CURVE SMOOTH",
"621 501 OFFCURVE",
"548 680 OFFCURVE",
"359 680 CURVE"
);
}
);
width = 716;
}
);
leftKerningGroup = O;
rightKerningGroup = O;
unicode = 004F;
},
{
glyphname = Oslash;
layers = (
{
components = (
{
name = O;
}
);
layerId = master01;
paths = (
{
closed = 0;
nodes = (
"124 -20 LINE",
"603 700 LINE"
);
}
);
width = 716;
}
);
leftKerningGroup = O;
leftMetricsKey = O;
rightKerningGroup = O;
rightMetricsKey = O;
unicode = 00D8;
},
{
glyphname = OE;
layers = (
{
background = {
components = (
{
name = E;
transform = "{1, 0, 0, 1, 336, 0}";
}
);
};
layerId = master01;
paths = (
{
closed = 0;
nodes = (
"476 10 LINE",
"437 4 OFFCURVE",
"396 0 OFFCURVE",
"353 0 CURVE SMOOTH",
"137 0 OFFCURVE",
"95 207 OFFCURVE",
"95 341 CURVE SMOOTH",
"95 501 OFFCURVE",
"158 680 OFFCURVE",
"352 680 CURVE"
);
},
{
closed = 0;
nodes = (
"817 10 LINE",
"476 10 LINE",
"476 670 LINE",
"817 670 LINE"
);
},
{
closed = 0;
nodes = (
"476 356 LINE",
"800 356 LINE"
);
},
{
closed = 0;
nodes = (
"476 670 LINE",
"438 676 OFFCURVE",
"399 680 OFFCURVE",
"354 680 CURVE"
);
}
);
width = 907;
}
);
leftKerningGroup = O;
leftMetricsKey = O;
rightKerningGroup = E;
rightMetricsKey = E;
unicode = 0152;
},
{
glyphname = P;
layers = (
{
background = {
paths = (
{
closed = 0;
nodes = (
"140 316 LINE",
"314 316 LINE SMOOTH",
"454 316 OFFCURVE",
"525 381 OFFCURVE",
"525 493 CURVE SMOOTH",
"525 602 OFFCURVE",
"458 680 OFFCURVE",
"317 680 CURVE SMOOTH",
"140 680 LINE"
);
},
{
closed = 0;
nodes = (
"140 0 LINE",
"140 680 LINE"
);
}
);
};
layerId = master01;
paths = (
{
closed = 0;
nodes = (
"140 316 LINE",
"314 316 LINE SMOOTH",
"454 316 OFFCURVE",
"525 381 OFFCURVE",
"525 493 CURVE SMOOTH",
"525 602 OFFCURVE",
"458 680 OFFCURVE",
"317 680 CURVE SMOOTH",
"140 680 LINE"
);
},
{
closed = 0;
nodes = (
"140 0 LINE",
"140 680 LINE"
);
}
);
width = 590;
}
);
leftKerningGroup = H;
leftMetricsKey = H;
rightKerningGroup = P;
unicode = 0050;
},
{
glyphname = Thorn;
layers = (
{
layerId = master01;
paths = (
{
closed = 0;
nodes = (
"140 177 LINE",
"302 177 LINE SMOOTH",
"468 177 OFFCURVE",
"524 250 OFFCURVE",
"524 348 CURVE SMOOTH",
"524 447 OFFCURVE",
"462 513 OFFCURVE",
"320 513 CURVE SMOOTH",
"140 513 LINE"
);
},
{
closed = 0;
nodes = (
"140 0 LINE",
"141 680 LINE"
);
}
);
width = 584;
}
);
leftKerningGroup = H;
leftMetricsKey = H;
rightKerningGroup = Thorn;
unicode = 00DE;
},
{
glyphname = Q;
layers = (
{
background = {
paths = (
{
closed = 0;
nodes = (
"599 -138 LINE",
"428 7 LINE"
);
}
);
};
components = (
{
name = O;
}
);
layerId = master01;
paths = (
{
closed = 0;
nodes = (
"599 -138 LINE",
"428 7 LINE"
);
}
);
width = 716;
}
);
leftKerningGroup = O;
leftMetricsKey = O;
rightKerningGroup = O;
unicode = 0051;
},
{
glyphname = R;
layers = (
{
anchors = (
{
name = bottom;
position = "{305, 0}";
},
{
name = top;
position = "{300, 680}";
}
);
background = {
paths = (
{
closed = 0;
nodes = (
"140 344 LINE",
"325 344 LINE SMOOTH",
"423 344 OFFCURVE",
"506 406 OFFCURVE",
"506 512 CURVE SMOOTH",
"506 602 OFFCURVE",
"447 679 OFFCURVE",
"313 679 CURVE SMOOTH",
"140 679 LINE SMOOTH"
);
},
{
closed = 0;
nodes = (
"140 0 LINE",
"140 679 LINE"
);
},
{
closed = 0;
nodes = (
"519 0 LINE",
"343 344 LINE"
);
}
);
};
layerId = master01;
paths = (
{
closed = 0;
nodes = (
"140 344 LINE",
"325 344 LINE SMOOTH",
"423 344 OFFCURVE",
"506 406 OFFCURVE",
"506 512 CURVE SMOOTH",
"506 602 OFFCURVE",
"447 679 OFFCURVE",
"313 679 CURVE SMOOTH",
"140 679 LINE SMOOTH"
);
},
{
closed = 0;
nodes = (
"140 0 LINE",
"140 679 LINE"
);
},
{
closed = 0;
nodes = (
"519 0 LINE",
"343 344 LINE"
);
}
);
width = 604;
}
);
leftKerningGroup = H;
leftMetricsKey = H;
rightKerningGroup = R;
unicode = 0052;
},
{
glyphname = S;
layers = (
{
anchors = (
{
name = bottom;
position = "{292, 0}";
},
{
name = top;
position = "{298, 680}";
}
);
background = {
components = (
{
name = O;
transform = "{1, 0, 0, 1, -79, 0}";
}
);
paths = (
{
closed = 0;
nodes = (
"95 109 LINE",
"123 43 OFFCURVE",
"193 0 OFFCURVE",
"285 0 CURVE SMOOTH",
"404 0 OFFCURVE",
"476 74 OFFCURVE",
"476 163 CURVE SMOOTH",
"476 364 OFFCURVE",
"109 334 OFFCURVE",
"109 526 CURVE SMOOTH",
"109 605 OFFCURVE",
"171 680 OFFCURVE",
"293 680 CURVE SMOOTH",
"379 680 OFFCURVE",
"432 642 OFFCURVE",
"456 590 CURVE"
);
}
);
};
layerId = master01;
paths = (
{
closed = 0;
nodes = (
"95 109 LINE",
"123 43 OFFCURVE",
"193 0 OFFCURVE",
"285 0 CURVE SMOOTH",
"404 0 OFFCURVE",
"476 74 OFFCURVE",
"476 163 CURVE SMOOTH",
"476 364 OFFCURVE",
"109 334 OFFCURVE",
"109 526 CURVE SMOOTH",
"109 605 OFFCURVE",
"171 680 OFFCURVE",
"293 680 CURVE SMOOTH",
"379 680 OFFCURVE",
"432 642 OFFCURVE",
"456 590 CURVE"
);
}
);
width = 566;
}
);
leftKerningGroup = O;
leftMetricsKey = O;
rightKerningGroup = O;
rightMetricsKey = "=O-5";
unicode = 0053;
},
{
glyphname = Germandbls;
layers = (
{
associatedMasterId = master01;
background = {
paths = (
{
closed = 0;
nodes = (
"250 24 LINE SMOOTH",
"273 11 OFFCURVE",
"308 0 OFFCURVE",
"351 0 CURVE SMOOTH",
"462 0 OFFCURVE",
"544 74 OFFCURVE",
"544 186 CURVE SMOOTH",
"544 311 OFFCURVE",
"443 393 OFFCURVE",
"337 406 CURVE",
"497 642 LINE",
"436 670 OFFCURVE",
"374 680 OFFCURVE",
"321 680 CURVE SMOOTH",
"140 680 OFFCURVE",
"130 562 OFFCURVE",
"130 495 CURVE SMOOTH",
"130 0 LINE"
);
}
);
};
layerId = "DC23B4D8-73B2-496D-AB1B-2AAA5FEC9D62";
name = "Aug 4 21, 20:53";
paths = (
{
closed = 0;
nodes = (
"250 24 LINE SMOOTH",
"273 11 OFFCURVE",
"308 0 OFFCURVE",
"351 0 CURVE SMOOTH",
"462 0 OFFCURVE",
"544 74 OFFCURVE",
"544 186 CURVE SMOOTH",
"544 311 OFFCURVE",
"443 393 OFFCURVE",
"337 406 CURVE",
"497 642 LINE",
"436 670 OFFCURVE",
"374 680 OFFCURVE",
"321 680 CURVE SMOOTH",
"140 680 OFFCURVE",
"130 562 OFFCURVE",
"130 495 CURVE SMOOTH",
"130 0 LINE"
);
}
);
width = 604;
},
{
background = {
paths = (
{
closed = 0;
nodes = (
"250 24 LINE SMOOTH",
"273 11 OFFCURVE",
"308 0 OFFCURVE",
"351 0 CURVE SMOOTH",
"462 0 OFFCURVE",
"544 74 OFFCURVE",
"544 186 CURVE SMOOTH",
"544 311 OFFCURVE",
"443 393 OFFCURVE",
"337 406 CURVE",
"497 642 LINE",
"436 670 OFFCURVE",
"374 680 OFFCURVE",
"321 680 CURVE SMOOTH",
"140 680 OFFCURVE",
"130 562 OFFCURVE",
"130 495 CURVE SMOOTH",
"130 0 LINE"
);
}
);
};
layerId = master01;
paths = (
{
closed = 0;
nodes = (
"260 24 LINE",
"283 11 OFFCURVE",
"318 0 OFFCURVE",
"361 0 CURVE SMOOTH",
"472 0 OFFCURVE",
"554 74 OFFCURVE",
"554 186 CURVE SMOOTH",
"554 311 OFFCURVE",
"453 393 OFFCURVE",
"347 406 CURVE",
"513 680 LINE",
"140 680 LINE",
"140 0 LINE"
);
}
);
width = 624;
}
);
leftKerningGroup = H;
leftMetricsKey = H;
rightKerningGroup = Germandbls;
unicode = 1E9E;
},
{
glyphname = T;
layers = (
{
anchors = (
{
name = bottom;
position = "{260, 0}";
},
{
name = center;
position = "{260, 340}";
},
{
name = top;
position = "{260, 680}";
}
);
background = {
paths = (
{
closed = 0;
nodes = (
"40 670 LINE",
"480 670 LINE"
);
},
{
closed = 0;
nodes = (
"260 0 LINE",
"260 670 LINE"
);
}
);
};
layerId = master01;
paths = (
{
closed = 0;
nodes = (
"40 670 LINE",
"480 670 LINE"
);
},
{
closed = 0;
nodes = (
"260 0 LINE",
"260 670 LINE"
);
}
);
width = 520;
}
);
leftKerningGroup = T;
rightKerningGroup = T;
unicode = 0054;
},
{
glyphname = Tbar;
layers = (
{
components = (
{
name = T;
}
);
layerId = master01;
paths = (
{
closed = 0;
nodes = (
"120 398 LINE",
"400 398 LINE"
);
}
);
width = 520;
}
);
leftKerningGroup = T;
leftMetricsKey = T;
rightKerningGroup = T;
rightMetricsKey = T;
unicode = 0166;
},
{
glyphname = Tcommaaccent;
layers = (
{
anchors = (
{
name = _bottom;
position = "{260, 0}";
},
{
name = bottom;
position = "{250, -252}";
}
);
background = {
components = (
{
name = commaaccentcomb;
transform = "{1, 0, 0, 1, 201, 0}";
}
);
};
components = (
{
name = T;
}
);
layerId = master01;
paths = (
{
closed = 0;
nodes = (
"181 -222 LINE",
"259 -67 LINE"
);
}
);
width = 520;
}
);
leftKerningGroup = T;
rightKerningGroup = T;
unicode = 021A;
},
{
glyphname = U;
layers = (
{
anchors = (
{
name = bottom;
position = "{347, 0}";
},
{
name = ogonek;
position = "{352, 0}";
},
{
name = top;
position = "{346, 680}";
},
{
name = topright;
position = "{664, 696}";
}
);
background = {
paths = (
{
closed = 0;
nodes = (
"130 680 LINE",
"130 245 LINE SMOOTH",
"130 87 OFFCURVE",
"218 0 OFFCURVE",
"347 0 CURVE SMOOTH",
"482 0 OFFCURVE",
"564 87 OFFCURVE",
"564 245 CURVE SMOOTH",
"564 680 LINE"
);
}
);
};
layerId = master01;
paths = (
{
closed = 0;
nodes = (
"130 680 LINE",
"130 245 LINE SMOOTH",
"130 87 OFFCURVE",
"218 0 OFFCURVE",
"347 0 CURVE SMOOTH",
"482 0 OFFCURVE",
"564 87 OFFCURVE",
"564 245 CURVE SMOOTH",
"564 680 LINE"
);
}
);
width = 694;
}
);
leftKerningGroup = U;
leftMetricsKey = "=H-10";
rightKerningGroup = U;
rightMetricsKey = "=H-10";
unicode = 0055;
},
{
glyphname = V;
layers = (
{
background = {
paths = (
{
closed = 0;
nodes = (
"70 680 LINE",
"319 0 LINE",
"323 0 LINE",
"571 680 LINE"
);
}
);
};
layerId = master01;
paths = (
{
closed = 0;
nodes = (
"70 680 LINE",
"319 0 LINE",
"323 0 LINE",
"571 680 LINE"
);
}
);
width = 641;
}
);
leftKerningGroup = V;
leftMetricsKey = A;
rightKerningGroup = V;
rightMetricsKey = A;
unicode = 0056;
},
{
glyphname = W;
layers = (
{
anchors = (
{
name = bottom;
position = "{455, 0}";
},
{
name = top;
position = "{453, 680}";
}
);
background = {
paths = (
{
closed = 0;
nodes = (
"80 680 LINE",
"255 0 LINE",
"259 0 LINE",
"450 670 LINE",
"454 670 LINE",
"645 0 LINE",
"649 0 LINE",
"830 680 LINE"
);
}
);
};
layerId = master01;
paths = (
{
closed = 0;
nodes = (
"80 680 LINE",
"255 0 LINE",
"259 0 LINE",
"450 670 LINE",
"454 670 LINE",
"645 0 LINE",
"649 0 LINE",
"830 680 LINE"
);
}
);
width = 910;
}
);
leftKerningGroup = W;
leftMetricsKey = "=V+10";
rightKerningGroup = W;
rightMetricsKey = "=V+10";
unicode = 0057;
},
{
glyphname = X;
layers = (
{
background = {
paths = (
{
closed = 0;
nodes = (
"70 0 LINE",
"516 680 LINE"
);
},
{
closed = 0;
nodes = (
"537 0 LINE",
"93 680 LINE"
);
}
);
};
layerId = master01;
paths = (
{
closed = 0;
nodes = (
"70 0 LINE",
"516 680 LINE"
);
},
{
closed = 0;
nodes = (
"537 0 LINE",
"93 680 LINE"
);
}
);
width = 607;
}
);
leftKerningGroup = X;
rightKerningGroup = X;
unicode = 0058;
},
{
glyphname = Y;
layers = (
{
anchors = (
{
name = bottom;
position = "{288, -16}";
},
{
name = top;
position = "{291, 680}";
},
{
name = topleft;
position = "{50, 680}";
}
);
background = {
paths = (
{
closed = 0;
nodes = (
"50 680 LINE",
"285 296 LINE",
"525 680 LINE"
);
},
{
closed = 0;
nodes = (
"285 0 LINE",
"285 296 LINE"
);
}
);
};
layerId = master01;
paths = (
{
closed = 0;
nodes = (
"50 680 LINE",
"285 296 LINE",
"525 680 LINE"
);
},
{
closed = 0;
nodes = (
"285 0 LINE",
"285 296 LINE"
);
}
);
width = 575;
}
);
leftKerningGroup = Y;
rightKerningGroup = Y;
unicode = 0059;
},
{
glyphname = Z;
layers = (
{
anchors = (
{
name = bottom;
position = "{305, 0}";
},
{
name = center;
position = "{305, 340}";
},
{
name = top;
position = "{300, 680}";
}
);
background = {
paths = (
{
closed = 0;
nodes = (
"509 10 LINE",
"111 10 LINE",
"111 14 LINE",
"498 666 LINE",
"498 670 LINE",
"110 670 LINE"
);
}
);
};
layerId = master01;
paths = (
{
closed = 0;
nodes = (
"509 10 LINE",
"111 10 LINE",
"111 14 LINE",
"498 666 LINE",
"498 670 LINE",
"110 670 LINE"
);
}
);
width = 609;
}
);
leftKerningGroup = Z;
rightKerningGroup = Z;
unicode = 005A;
},
{
glyphname = a;
layers = (
{
anchors = (
{
name = bottom;
position = "{226, 0}";
},
{
name = ogonek;
position = "{441, 0}";
},
{
name = top;
position = "{281, 555}";
}
);
background = {
paths = (
{
closed = 0;
nodes = (
"441 0 LINE",
"438 37 OFFCURVE",
"437 97 OFFCURVE",
"437 138 CURVE SMOOTH",
"437 378 LINE SMOOTH",
"437 475 OFFCURVE",
"398 555 OFFCURVE",
"282 555 CURVE SMOOTH",
"197 555 OFFCURVE",
"147 516 OFFCURVE",
"114 440 CURVE"
);
},
{
closed = 0;
nodes = (
"437 308 LINE",
"376 308 LINE SMOOTH",
"174 308 OFFCURVE",
"90 255 OFFCURVE",
"90 141 CURVE SMOOTH",
"90 68 OFFCURVE",
"134 0 OFFCURVE",
"229 0 CURVE SMOOTH",
"315 0 OFFCURVE",
"382 57 OFFCURVE",
"437 130 CURVE SMOOTH"
);
}
);
};
layerId = master01;
paths = (
{
closed = 0;
nodes = (
"441 0 LINE",
"438 37 OFFCURVE",
"437 97 OFFCURVE",
"437 138 CURVE SMOOTH",
"437 378 LINE SMOOTH",
"437 475 OFFCURVE",
"398 555 OFFCURVE",
"282 555 CURVE SMOOTH",
"197 555 OFFCURVE",
"147 516 OFFCURVE",
"114 440 CURVE"
);
},
{
closed = 0;
nodes = (
"437 308 LINE",
"376 308 LINE SMOOTH",
"174 308 OFFCURVE",
"90 255 OFFCURVE",
"90 141 CURVE SMOOTH",
"90 68 OFFCURVE",
"134 0 OFFCURVE",
"229 0 CURVE SMOOTH",
"315 0 OFFCURVE",
"382 57 OFFCURVE",
"437 130 CURVE SMOOTH"
);
}
);
width = 561;
}
);
leftKerningGroup = a;
rightKerningGroup = a;
unicode = 0061;
},
{
glyphname = ae;
layers = (
{
components = (
{
name = e;
transform = "{1, 0, 0, 1, 347, 3}";
}
);
guideLines = (
{
position = "{861, -64}";
},
{
position = "{118, -64}";
}
);
layerId = master01;
paths = (
{
closed = 0;
nodes = (
"450 138 LINE",
"389 49 OFFCURVE",
"321 0 OFFCURVE",
"233 0 CURVE SMOOTH",
"135 0 OFFCURVE",
"90 68 OFFCURVE",
"90 138 CURVE SMOOTH",
"90 248 OFFCURVE",
"166 308 OFFCURVE",
"374 308 CURVE SMOOTH",
"437 308 LINE",
"437 378 LINE",
"436 475 OFFCURVE",
"402 555 OFFCURVE",
"283 555 CURVE SMOOTH",
"195 555 OFFCURVE",
"145 516 OFFCURVE",
"115 440 CURVE"
);
}
);
width = 908;
}
);
leftKerningGroup = a;
leftMetricsKey = a;
rightKerningGroup = o;
rightMetricsKey = "=o-5";
unicode = 00E6;
},
{
glyphname = b;
layers = (
{
components = (
{
name = _module_rond;
transform = "{1, 0, 0, 1, 140, 0}";
}
);
layerId = master01;
paths = (
{
closed = 0;
nodes = (
"140 745 LINE",
"140 0 LINE"
);
}
);
width = 613;
}
);
leftKerningGroup = h;
leftMetricsKey = n;
rightKerningGroup = o;
rightMetricsKey = o;
unicode = 0062;
},
{
glyphname = c;
layers = (
{
anchors = (
{
name = bottom;
position = "{281, 0}";
},
{
name = top;
position = "{290, 555}";
}
);
background = {
components = (
{
name = o;
}
);
paths = (
{
closed = 0;
nodes = (
"445 450 LINE",
"423 504 OFFCURVE",
"372 555 OFFCURVE",
"289 555 CURVE SMOOTH",
"163 555 OFFCURVE",
"90 439 OFFCURVE",
"90 271 CURVE SMOOTH",
"90 107 OFFCURVE",
"160 0 OFFCURVE",
"290 0 CURVE SMOOTH",
"368 0 OFFCURVE",
"411 38 OFFCURVE",
"446 98 CURVE SMOOTH"
);
}
);
};
layerId = master01;
paths = (
{
closed = 0;
nodes = (
"445 450 LINE",
"423 504 OFFCURVE",
"372 555 OFFCURVE",
"289 555 CURVE SMOOTH",
"163 555 OFFCURVE",
"90 439 OFFCURVE",
"90 271 CURVE SMOOTH",
"90 107 OFFCURVE",
"160 0 OFFCURVE",
"290 0 CURVE SMOOTH",
"368 0 OFFCURVE",
"411 38 OFFCURVE",
"446 98 CURVE SMOOTH"
);
}
);
width = 531;
}
);
leftKerningGroup = o;
leftMetricsKey = o;
rightKerningGroup = o;
rightMetricsKey = "=o-5";
unicode = 0063;
},
{
glyphname = d;
layers = (
{
anchors = (
{
name = bottom;
position = "{473, 0}";
},
{
name = center;
position = "{473, 278}";
},
{
name = top;
position = "{473, 687}";
},
{
name = topright;
position = "{623, 745}";
}
);
components = (
{
alignment = -1;
name = _module_rond;
transform = "{-1, 0, 0, 1, 473, 0}";
}
);
guideLines = (
{
position = "{258, 697}";
}
);
layerId = master01;
paths = (
{
closed = 0;
nodes = (
"473 745 LINE",
"473 0 LINE"
);
}
);
width = 613;
}
);
leftKerningGroup = o;
leftMetricsKey = o;
rightKerningGroup = d;
rightMetricsKey = "=|n";
unicode = 0064;
},
{
glyphname = eth;
layers = (
{
components = (
{
name = six;
transform = "{-1, 0, 0, 1, 602, 0}";
}
);
layerId = master01;
paths = (
{
closed = 0;
nodes = (
"222 503 LINE",
"446 612 LINE"
);
}
);
width = 592;
}
);
leftKerningGroup = o;
rightKerningGroup = eth;
unicode = 00F0;
},
{
glyphname = dcroat;
layers = (
{
components = (
{
name = d;
}
);
layerId = master01;
paths = (
{
closed = 0;
nodes = (
"565 644 LINE",
"337 644 LINE"
);
}
);
width = 610;
}
);
leftKerningGroup = o;
rightKerningGroup = dcroat;
unicode = 0111;
},
{
glyphname = e;
layers = (
{
anchors = (
{
name = bottom;
position = "{291, 0}";
},
{
name = ogonek;
position = "{412, 35}";
},
{
name = top;
position = "{295, 555}";
}
);
background = {
paths = (
{
closed = 0;
nodes = (
"92 305 LINE",
"476 305 LINE",
"476 417 OFFCURVE",
"439 555 OFFCURVE",
"294 555 CURVE SMOOTH",
"169 555 OFFCURVE",
"90 451 OFFCURVE",
"90 275 CURVE SMOOTH",
"90 116 OFFCURVE",
"154 0 OFFCURVE",
"297 0 CURVE SMOOTH",
"391 0 OFFCURVE",
"443 51 OFFCURVE",
"468 110 CURVE SMOOTH"
);
}
);
};
layerId = master01;
paths = (
{
closed = 0;
nodes = (
"92 305 LINE",
"476 305 LINE",
"476 417 OFFCURVE",
"439 555 OFFCURVE",
"294 555 CURVE SMOOTH",
"169 555 OFFCURVE",
"90 451 OFFCURVE",
"90 275 CURVE SMOOTH",
"90 116 OFFCURVE",
"154 0 OFFCURVE",
"297 0 CURVE SMOOTH",
"391 0 OFFCURVE",
"443 51 OFFCURVE",
"468 110 CURVE SMOOTH"
);
}
);
userData = {
com.schriftgestaltung.Glyphs.lastChange = "2021-03-17 07:34:11 +0000";
};
width = 561;
}
);
leftKerningGroup = o;
leftMetricsKey = o;
rightKerningGroup = o;
rightMetricsKey = "=o-5";
unicode = 0065;
},
{
glyphname = f;
layers = (
{
background = {
paths = (
{
closed = 0;
nodes = (
"150 0 LINE",
"150 619 LINE SMOOTH",
"150 696 OFFCURVE",
"187 745 OFFCURVE",
"258 745 CURVE SMOOTH",
"285 745 OFFCURVE",
"309 738 OFFCURVE",
"328 724 CURVE"
);
},
{
closed = 0;
nodes = (
"50 500 LINE",
"297 500 LINE"
);
}
);
};
layerId = master01;
paths = (
{
closed = 0;
nodes = (
"150 0 LINE",
"150 619 LINE SMOOTH",
"150 696 OFFCURVE",
"187 745 OFFCURVE",
"258 745 CURVE SMOOTH",
"285 745 OFFCURVE",
"309 738 OFFCURVE",
"328 724 CURVE"
);
},
{
closed = 0;
nodes = (
"50 500 LINE",
"297 500 LINE"
);
}
);
width = 333;
}
);
leftKerningGroup = f;
rightKerningGroup = f;
unicode = 0066;
},
{
glyphname = g;
layers = (
{
anchors = (
{
name = bottom;
position = "{294, -188}";
},
{
name = top;
position = "{308, 555}";
}
);
background = {
paths = (
{
closed = 0;
nodes = (
"473 421 LINE",
"419 517 OFFCURVE",
"352 555 OFFCURVE",
"280 555 CURVE SMOOTH",
"157 555 OFFCURVE",
"90 447 OFFCURVE",
"90 289 CURVE SMOOTH",
"90 147 OFFCURVE",
"144 20 OFFCURVE",
"280 20 CURVE SMOOTH",
"365 20 OFFCURVE",
"430 68 OFFCURVE",
"473 147 CURVE"
);
}
);
};
components = (
{
alignment = -1;
name = _module_g;
transform = "{1, 0, 0, 1, 127, 0}";
}
);
layerId = master01;
paths = (
{
closed = 0;
nodes = (
"473 421 LINE",
"419 517 OFFCURVE",
"352 555 OFFCURVE",
"280 555 CURVE SMOOTH",
"157 555 OFFCURVE",
"90 447 OFFCURVE",
"90 289 CURVE SMOOTH",
"90 147 OFFCURVE",
"144 20 OFFCURVE",
"280 20 CURVE SMOOTH",
"365 20 OFFCURVE",
"430 68 OFFCURVE",
"473 147 CURVE"
);
}
);
width = 608;
}
);
leftKerningGroup = o;
leftMetricsKey = o;
rightKerningGroup = n;
rightMetricsKey = n;
unicode = 0067;
},
{
glyphname = h;
layers = (
{
anchors = (
{
name = bottom;
position = "{304, 0}";
},
{
name = center;
position = "{304, 373}";
},
{
name = top;
position = "{304, 745}";
}
);
components = (
{
alignment = -1;
name = _module_n;
transform = "{1, 0, 0, 1, 140, 0}";
}
);
layerId = master01;
paths = (
{
closed = 0;
nodes = (
"140 745 LINE",
"140 0 LINE"
);
}
);
userData = {
com.schriftgestaltung.Glyphs.lastChange = "2021-03-17 07:33:32 +0000";
};
width = 608;
}
);
leftKerningGroup = h;
leftMetricsKey = n;
rightKerningGroup = n;
rightMetricsKey = n;
unicode = 0068;
},
{
glyphname = hbar;
layers = (
{
components = (
{
name = h;
}
);
layerId = master01;
paths = (
{
closed = 0;
nodes = (
"48 644 LINE",
"276 644 LINE"
);
}
);
width = 608;
}
);
leftKerningGroup = h;
rightKerningGroup = n;
unicode = 0127;
},
{
glyphname = idotless;
layers = (
{
anchors = (
{
name = bottom;
position = "{140, 0}";
},
{
name = ogonek;
position = "{140, 0}";
},
{
name = top;
position = "{140, 555}";
}
);
layerId = master01;
paths = (
{
closed = 0;
nodes = (
"140 0 LINE",
"140 555 LINE"
);
}
);
width = 280;
},
{
anchors = (
{
name = bottom;
position = "{141, 0}";
},
{
name = ogonek;
position = "{141, 0}";
},
{
name = top;
position = "{141, 555}";
}
);
associatedMasterId = master01;
layerId = "E58186D8-D6B2-43DB-8930-7EA9751550E1";
name = "Sep 10 21, 11:13";
paths = (
{
closed = 0;
nodes = (
"141 0 LINE",
"141 555 LINE",
"140 556 LINE"
);
}
);
width = 281;
}
);
leftKerningGroup = i;
leftMetricsKey = n;
rightKerningGroup = i;
rightMetricsKey = "=|n";
unicode = 0131;
},
{
glyphname = jdotless;
layers = (
{
anchors = (
{
name = bottom;
position = "{147, -190}";
},
{
name = top;
position = "{158, 555}";
}
);
background = {
paths = (
{
closed = 0;
nodes = (
"0 -165 LINE",
"15 -179 OFFCURVE",
"39 -190 OFFCURVE",
"72 -190 CURVE SMOOTH",
"135 -190 OFFCURVE",
"158 -152 OFFCURVE",
"158 -83 CURVE SMOOTH",
"158 555 LINE"
);
}
);
};
layerId = master01;
paths = (
{
closed = 0;
nodes = (
"0 -165 LINE",
"15 -179 OFFCURVE",
"39 -190 OFFCURVE",
"72 -190 CURVE SMOOTH",
"135 -190 OFFCURVE",
"158 -152 OFFCURVE",
"158 -83 CURVE SMOOTH",
"158 555 LINE"
);
}
);
width = 293;
}
);
leftKerningGroup = j;
rightKerningGroup = i;
rightMetricsKey = n;
unicode = 0237;
},
{
glyphname = k;
layers = (
{
anchors = (
{
name = bottom;
position = "{289, 0}";
},
{
name = top;
position = "{269, 745}";
}
);
background = {
paths = (
{
closed = 0;
nodes = (
"478 0 LINE",
"200 302 LINE",
"456 555 LINE"
);
}
);
};
layerId = master01;
paths = (
{
closed = 0;
nodes = (
"478 0 LINE",
"200 302 LINE",
"456 555 LINE"
);
},
{
closed = 0;
nodes = (
"140 745 LINE",
"140 0 LINE"
);
}
);
width = 528;
}
);
leftKerningGroup = h;
leftMetricsKey = n;
rightKerningGroup = k;
unicode = 006B;
},
{
glyphname = l;
layers = (
{
anchors = (
{
name = bottom;
position = "{194, 0}";
},
{
name = center;
position = "{135, 389}";
},
{
name = top;
position = "{202, 745}";
},
{
name = topright;
position = "{285, 745}";
}
);
background = {
paths = (
{
closed = 0;
nodes = (
"252 4 LINE",
"245 2 OFFCURVE",
"234 0 OFFCURVE",
"221 0 CURVE SMOOTH",
"164 0 OFFCURVE",
"135 35 OFFCURVE",
"135 107 CURVE SMOOTH",
"135 745 LINE"
);
}
);
};
layerId = master01;
paths = (
{
closed = 0;
nodes = (
"252 4 LINE",
"245 2 OFFCURVE",
"234 0 OFFCURVE",
"221 0 CURVE SMOOTH",
"164 0 OFFCURVE",
"135 35 OFFCURVE",
"135 107 CURVE SMOOTH",
"135 745 LINE"
);
}
);
width = 307;
}
);
leftKerningGroup = h;
leftMetricsKey = "=|n";
rightKerningGroup = l;
unicode = 006C;
},
{
glyphname = lslash;
layers = (
{
components = (
{
name = l;
}
);
layerId = master01;
paths = (
{
closed = 0;
nodes = (
"35 327 LINE",
"257 407 LINE"
);
}
);
width = 307;
}
);
leftKerningGroup = h;
rightKerningGroup = l;
unicode = 0142;
},
{
glyphname = m;
layers = (
{
components = (
{
alignment = -1;
name = _module_n;
transform = "{1, 0, 0, 1, 140, 0}";
},
{
alignment = -1;
name = _module_n;
transform = "{1, 0, 0, 1, 473, 0}";
}
);
layerId = master01;
paths = (
{
closed = 0;
nodes = (
"140 555 LINE",
"140 0 LINE"
);
}
);
userData = {
com.schriftgestaltung.Glyphs.lastChange = "2021-03-17 07:33:32 +0000";
};
width = 941;
}
);
leftKerningGroup = n;
leftMetricsKey = n;
rightKerningGroup = n;
rightMetricsKey = n;
unicode = 006D;
},
{
glyphname = n;
layers = (
{
anchors = (
{
name = bottom;
position = "{314, 0}";
},
{
name = top;
position = "{314, 555}";
}
);
components = (
{
alignment = -1;
name = _module_n;
transform = "{1, 0, 0, 1, 140, 0}";
}
);
layerId = master01;
paths = (
{
closed = 0;
nodes = (
"140 555 LINE",
"140 0 LINE"
);
}
);
userData = {
com.schriftgestaltung.Glyphs.lastChange = "2021-03-17 07:33:32 +0000";
};
width = 608;
}
);
leftKerningGroup = n;
rightKerningGroup = n;
unicode = 006E;
},
{
glyphname = eng;
layers = (
{
components = (
{
name = n;
}
);
layerId = master01;
paths = (
{
closed = 0;
nodes = (
"315 -163 LINE",
"330 -177 OFFCURVE",
"354 -188 OFFCURVE",
"387 -188 CURVE SMOOTH",
"450 -188 OFFCURVE",
"473 -150 OFFCURVE",
"473 -81 CURVE SMOOTH",
"473 0 LINE"
);
}
);
width = 608;
}
);
leftKerningGroup = n;
leftMetricsKey = n;
rightKerningGroup = n;
rightMetricsKey = n;
unicode = 014B;
},
{
glyphname = o;
layers = (
{
anchors = (
{
name = bottom;
position = "{296, 0}";
},
{
name = center;
position = "{296, 280}";
},
{
name = ogonek;
position = "{296, 0}";
},
{
name = top;
position = "{295, 555}";
},
{
name = topright;
position = "{533, 555}";
}
);
background = {
paths = (
{
closed = 0;
nodes = (
"295 555 LINE",
"131 555 OFFCURVE",
"90 384 OFFCURVE",
"90 275 CURVE SMOOTH",
"90 140 OFFCURVE",
"152 0 OFFCURVE",
"296 0 CURVE SMOOTH",
"440 0 OFFCURVE",
"502 140 OFFCURVE",
"502 275 CURVE SMOOTH",
"502 384 OFFCURVE",
"461 555 OFFCURVE",
"297 555 CURVE"
);
}
);
};
layerId = master01;
paths = (
{
closed = 0;
nodes = (
"295 555 LINE",
"131 555 OFFCURVE",
"90 384 OFFCURVE",
"90 275 CURVE SMOOTH",
"90 140 OFFCURVE",
"152 0 OFFCURVE",
"296 0 CURVE SMOOTH",
"440 0 OFFCURVE",
"502 140 OFFCURVE",
"502 275 CURVE SMOOTH",
"502 384 OFFCURVE",
"461 555 OFFCURVE",
"297 555 CURVE"
);
}
);
width = 592;
}
);
leftKerningGroup = o;
rightKerningGroup = o;
unicode = 006F;
},
{
glyphname = oslash;
layers = (
{
components = (
{
name = o;
}
);
layerId = master01;
paths = (
{
closed = 0;
nodes = (
"113 -20 LINE",
"480 575 LINE"
);
}
);
width = 592;
}
);
leftKerningGroup = o;
leftMetricsKey = o;
rightKerningGroup = o;
rightMetricsKey = o;
unicode = 00F8;
},
{
glyphname = p;
layers = (
{
components = (
{
alignment = -1;
name = _module_rond;
transform = "{1, 0, 0, 1, 140, 0}";
}
);
layerId = master01;
paths = (
{
closed = 0;
nodes = (
"140 555 LINE",
"140 -190 LINE"
);
}
);
width = 613;
}
);
leftKerningGroup = n;
leftMetricsKey = n;
rightKerningGroup = o;
rightMetricsKey = o;
unicode = 0070;
},
{
glyphname = thorn;
layers = (
{
components = (
{
name = _module_rond;
transform = "{1, 0, 0, 1, 140, 0}";
}
);
layerId = master01;
paths = (
{
closed = 0;
nodes = (
"150 -188 LINE",
"151 745 LINE"
);
}
);
width = 613;
}
);
leftKerningGroup = h;
leftMetricsKey = n;
rightKerningGroup = o;
rightMetricsKey = o;
unicode = 00FE;
},
{
glyphname = q;
layers = (
{
components = (
{
alignment = -1;
name = _module_rond;
transform = "{-1, 0, 0, 1, 473, 0}";
}
);
layerId = master01;
paths = (
{
closed = 0;
nodes = (
"473 555 LINE",
"473 -190 LINE"
);
}
);
width = 613;
}
);
leftKerningGroup = o;
leftMetricsKey = o;
rightKerningGroup = n;
rightMetricsKey = "=|n";
unicode = 0071;
},
{
glyphname = r;
layers = (
{
anchors = (
{
name = bottom;
position = "{110, 0}";
},
{
name = top;
position = "{234, 555}";
}
);
background = {
components = (
{
alignment = -1;
name = _module_n;
transform = "{1, 0, 0, 1, 140, 0}";
}
);
paths = (
{
closed = 0;
nodes = (
"140 415 LINE",
"211 497 OFFCURVE",
"277 555 OFFCURVE",
"338 555 CURVE SMOOTH"
);
},
{
closed = 0;
nodes = (
"140 555 LINE",
"140 0 LINE"
);
}
);
};
layerId = master01;
paths = (
{
closed = 0;
nodes = (
"140 415 LINE",
"211 497 OFFCURVE",
"277 555 OFFCURVE",
"338 555 CURVE SMOOTH"
);
},
{
closed = 0;
nodes = (
"140 555 LINE",
"140 0 LINE"
);
}
);
width = 394;
}
);
leftKerningGroup = n;
leftMetricsKey = n;
rightKerningGroup = r;
unicode = 0072;
},
{
glyphname = s;
layers = (
{
anchors = (
{
name = bottom;
position = "{265, 0}";
},
{
name = top;
position = "{267, 555}";
}
);
background = {
paths = (
{
closed = 0;
nodes = (
"90 118 LINE SMOOTH",
"114 44 OFFCURVE",
"185 0 OFFCURVE",
"270 0 CURVE SMOOTH",
"351 0 OFFCURVE",
"436 41 OFFCURVE",
"436 135 CURVE SMOOTH",
"436 320 OFFCURVE",
"109 256 OFFCURVE",
"109 430 CURVE SMOOTH",
"109 518 OFFCURVE",
"193 555 OFFCURVE",
"265 555 CURVE SMOOTH",
"335 555 OFFCURVE",
"390 520 OFFCURVE",
"415 462 CURVE"
);
}
);
};
layerId = master01;
paths = (
{
closed = 0;
nodes = (
"90 118 LINE SMOOTH",
"114 44 OFFCURVE",
"185 0 OFFCURVE",
"270 0 CURVE SMOOTH",
"351 0 OFFCURVE",
"436 41 OFFCURVE",
"436 135 CURVE SMOOTH",
"436 320 OFFCURVE",
"109 256 OFFCURVE",
"109 430 CURVE SMOOTH",
"109 518 OFFCURVE",
"193 555 OFFCURVE",
"265 555 CURVE SMOOTH",
"335 555 OFFCURVE",
"390 520 OFFCURVE",
"415 462 CURVE"
);
}
);
width = 521;
},
{
anchors = (
{
name = bottom;
position = "{265, 0}";
},
{
name = top;
position = "{267, 555}";
}
);
associatedMasterId = master01;
background = {
paths = (
{
closed = 0;
nodes = (
"90 118 LINE",
"114 44 OFFCURVE",
"185 0 OFFCURVE",
"270 0 CURVE SMOOTH",
"351 0 OFFCURVE",
"436 41 OFFCURVE",
"436 135 CURVE SMOOTH",
"436 320 OFFCURVE",
"109 252 OFFCURVE",
"109 433 CURVE SMOOTH",
"109 524 OFFCURVE",
"193 555 OFFCURVE",
"265 555 CURVE SMOOTH",
"338 555 OFFCURVE",
"388 523 OFFCURVE",
"413 457 CURVE"
);
}
);
};
layerId = "17AFE0F8-A466-4762-BA93-C962EE6B8127";
name = "Sep 17 21, 18:58";
paths = (
{
closed = 0;
nodes = (
"90 118 LINE SMOOTH",
"114 44 OFFCURVE",
"185 0 OFFCURVE",
"270 0 CURVE SMOOTH",
"351 0 OFFCURVE",
"436 41 OFFCURVE",
"436 135 CURVE SMOOTH",
"436 320 OFFCURVE",
"109 256 OFFCURVE",
"109 430 CURVE SMOOTH",
"109 518 OFFCURVE",
"193 555 OFFCURVE",
"265 555 CURVE SMOOTH",
"337 555 OFFCURVE",
"391 519 OFFCURVE",
"415 457 CURVE"
);
}
);
width = 521;
}
);
leftKerningGroup = o;
leftMetricsKey = o;
rightKerningGroup = o;
rightMetricsKey = "=o-5";
unicode = 0073;
},
{
glyphname = germandbls;
layers = (
{
background = {
paths = (
{
closed = 0;
nodes = (
"251 406 LINE",
"292 406 LINE SMOOTH",
"408 406 OFFCURVE",
"459 494 OFFCURVE",
"459 582 CURVE SMOOTH",
"459 670 OFFCURVE",
"407 745 OFFCURVE",
"299 745 CURVE SMOOTH",
"190 745 OFFCURVE",
"130 668 OFFCURVE",
"130 529 CURVE SMOOTH",
"130 0 LINE"
);
},
{
closed = 0;
nodes = (
"240 24 LINE SMOOTH",
"263 11 OFFCURVE",
"294 0 OFFCURVE",
"331 0 CURVE SMOOTH",
"435 0 OFFCURVE",
"499 85 OFFCURVE",
"499 195 CURVE SMOOTH",
"499 317 OFFCURVE",
"419 406 OFFCURVE",
"292 406 CURVE"
);
}
);
};
layerId = master01;
paths = (
{
closed = 0;
nodes = (
"261 406 LINE",
"302 406 LINE SMOOTH",
"418 406 OFFCURVE",
"469 494 OFFCURVE",
"469 582 CURVE SMOOTH",
"469 670 OFFCURVE",
"417 745 OFFCURVE",
"309 745 CURVE SMOOTH",
"200 745 OFFCURVE",
"140 668 OFFCURVE",
"140 529 CURVE SMOOTH",
"140 0 LINE"
);
},
{
closed = 0;
nodes = (
"250 24 LINE SMOOTH",
"273 11 OFFCURVE",
"304 0 OFFCURVE",
"341 0 CURVE SMOOTH",
"445 0 OFFCURVE",
"509 85 OFFCURVE",
"509 195 CURVE SMOOTH",
"509 317 OFFCURVE",
"426 406 OFFCURVE",
"302 406 CURVE"
);
}
);
width = 594;
}
);
leftKerningGroup = h;
leftMetricsKey = n;
rightKerningGroup = germandbls;
unicode = 00DF;
},
{
glyphname = t;
layers = (
{
anchors = (
{
name = bottom;
position = "{244, 0}";
},
{
name = center;
position = "{194, 278}";
},
{
name = top;
position = "{194, 636}";
},
{
name = topright;
position = "{290, 745}";
}
);
background = {
paths = (
{
closed = 0;
nodes = (
"327 27 LINE SMOOTH",
"309 11 OFFCURVE",
"281 0 OFFCURVE",
"247 0 CURVE SMOOTH",
"185 0 OFFCURVE",
"150 35 OFFCURVE",
"150 117 CURVE SMOOTH",
"150 660 LINE"
);
},
{
closed = 0;
nodes = (
"50 501 LINE",
"313 501 LINE"
);
}
);
};
layerId = master01;
paths = (
{
closed = 0;
nodes = (
"327 27 LINE SMOOTH",
"309 11 OFFCURVE",
"281 0 OFFCURVE",
"247 0 CURVE SMOOTH",
"185 0 OFFCURVE",
"150 35 OFFCURVE",
"150 117 CURVE SMOOTH",
"150 660 LINE"
);
},
{
closed = 0;
nodes = (
"50 501 LINE",
"313 501 LINE"
);
}
);
width = 387;
}
);
leftKerningGroup = t;
rightKerningGroup = t;
unicode = 0074;
},
{
glyphname = tbar;
layers = (
{
components = (
{
name = t;
}
);
layerId = master01;
paths = (
{
closed = 0;
nodes = (
"50 311 LINE",
"313 311 LINE"
);
}
);
width = 387;
}
);
leftKerningGroup = t;
rightKerningGroup = t;
unicode = 0167;
},
{
glyphname = u;
layers = (
{
anchors = (
{
name = bottom;
position = "{265, 0}";
},
{
name = ogonek;
position = "{463, 0}";
},
{
name = top;
position = "{302, 555}";
},
{
name = topright;
position = "{573, 555}";
}
);
background = {
components = (
{
alignment = -1;
name = _module_n;
transform = "{-1, 0, 0, -1, 463, 555}";
}
);
};
layerId = master01;
paths = (
{
closed = 0;
nodes = (
"463 140 LINE",
"423 72 OFFCURVE",
"351 0 OFFCURVE",
"262 0 CURVE SMOOTH",
"185 0 OFFCURVE",
"135 53 OFFCURVE",
"135 150 CURVE SMOOTH",
"135 555 LINE"
);
},
{
closed = 0;
nodes = (
"463 555 LINE",
"463 0 LINE"
);
}
);
width = 603;
}
);
leftKerningGroup = n;
leftMetricsKey = "=|n";
rightKerningGroup = n;
rightMetricsKey = "=|n";
unicode = 0075;
},
{
glyphname = v;
layers = (
{
background = {
paths = (
{
closed = 0;
nodes = (
"60 555 LINE",
"268 0 LINE",
"274 0 LINE",
"479 555 LINE"
);
}
);
};
layerId = master01;
paths = (
{
closed = 0;
nodes = (
"60 555 LINE",
"268 0 LINE",
"274 0 LINE",
"479 555 LINE"
);
}
);
width = 539;
}
);
leftKerningGroup = v;
rightKerningGroup = v;
unicode = 0076;
},
{
glyphname = w;
layers = (
{
anchors = (
{
name = bottom;
position = "{409, 0}";
},
{
name = top;
position = "{409, 555}";
}
);
background = {
paths = (
{
closed = 0;
nodes = (
"70 555 LINE",
"237 0 LINE",
"241 0 LINE",
"408 545 LINE",
"412 545 LINE",
"584 0 LINE",
"588 0 LINE",
"747 555 LINE"
);
}
);
};
layerId = master01;
paths = (
{
closed = 0;
nodes = (
"70 555 LINE",
"237 0 LINE",
"241 0 LINE",
"408 545 LINE",
"412 545 LINE",
"584 0 LINE",
"588 0 LINE",
"747 555 LINE"
);
}
);
width = 817;
}
);
leftKerningGroup = w;
leftMetricsKey = "=v+10";
rightKerningGroup = w;
rightMetricsKey = "=v+10";
unicode = 0077;
},
{
glyphname = x;
layers = (
{
background = {
paths = (
{
closed = 0;
nodes = (
"70 0 LINE",
"458 555 LINE"
);
},
{
closed = 0;
nodes = (
"470 0 LINE",
"95 555 LINE"
);
}
);
};
layerId = master01;
paths = (
{
closed = 0;
nodes = (
"70 0 LINE",
"458 555 LINE"
);
},
{
closed = 0;
nodes = (
"470 0 LINE",
"95 555 LINE"
);
}
);
width = 540;
}
);
leftKerningGroup = x;
rightKerningGroup = x;
unicode = 0078;
},
{
glyphname = y;
layers = (
{
anchors = (
{
name = bottom;
position = "{269, -16}";
},
{
name = top;
position = "{269, 555}";
}
);
background = {
paths = (
{
closed = 0;
nodes = (
"103 -175 LINE",
"119 -185 OFFCURVE",
"138 -190 OFFCURVE",
"156 -190 CURVE SMOOTH",
"213 -190 OFFCURVE",
"242 -138 OFFCURVE",
"276 -16 CURVE",
"478 555 LINE"
);
},
{
closed = 0;
nodes = (
"276 -16 LINE",
"70 555 LINE"
);
}
);
};
layerId = master01;
paths = (
{
closed = 0;
nodes = (
"103 -175 LINE",
"119 -185 OFFCURVE",
"138 -190 OFFCURVE",
"156 -190 CURVE SMOOTH",
"213 -190 OFFCURVE",
"242 -138 OFFCURVE",
"276 -16 CURVE",
"478 555 LINE"
);
},
{
closed = 0;
nodes = (
"276 -16 LINE",
"70 555 LINE"
);
}
);
width = 538;
}
);
leftKerningGroup = v;
rightKerningGroup = v;
unicode = 0079;
},
{
glyphname = z;
layers = (
{
anchors = (
{
name = bottom;
position = "{265, 0}";
},
{
name = center;
position = "{265, 280}";
},
{
name = top;
position = "{259, 555}";
}
);
background = {
paths = (
{
closed = 0;
nodes = (
"450 10 LINE",
"90 10 LINE",
"90 14 LINE",
"435 541 LINE",
"435 545 LINE",
"93 545 LINE"
);
}
);
};
layerId = master01;
paths = (
{
closed = 0;
nodes = (
"450 10 LINE",
"90 10 LINE",
"90 14 LINE",
"435 541 LINE",
"435 545 LINE",
"93 545 LINE"
);
}
);
width = 530;
}
);
leftKerningGroup = z;
rightKerningGroup = z;
unicode = 007A;
},
{
glyphname = g.ss01;
layers = (
{
anchors = (
{
name = bottom;
position = "{277, -188}";
},
{
name = top;
position = "{279, 555}";
}
);
background = {
paths = (
{
closed = 0;
nodes = (
"219 93 LINE",
"143 63 OFFCURVE",
"80 -6 OFFCURVE",
"80 -68 CURVE SMOOTH",
"80 -151 OFFCURVE",
"161 -190 OFFCURVE",
"277 -190 CURVE SMOOTH",
"402 -190 OFFCURVE",
"487 -142 OFFCURVE",
"487 -59 CURVE SMOOTH",
"487 109 OFFCURVE",
"152 44 OFFCURVE",
"152 158 CURVE SMOOTH",
"152 186 OFFCURVE",
"173 216 OFFCURVE",
"220 239 CURVE"
);
},
{
closed = 0;
nodes = (
"273 555 LINE",
"177 555 OFFCURVE",
"101 495 OFFCURVE",
"101 394 CURVE SMOOTH",
"101 297 OFFCURVE",
"168 235 OFFCURVE",
"275 235 CURVE SMOOTH",
"380 235 OFFCURVE",
"449 294 OFFCURVE",
"449 391 CURVE SMOOTH",
"449 503 OFFCURVE",
"363 555 OFFCURVE",
"275 555 CURVE"
);
},
{
closed = 0;
nodes = (
"344 543 LINE",
"517 543 LINE"
);
}
);
};
layerId = master01;
paths = (
{
closed = 0;
nodes = (
"219 93 LINE",
"143 63 OFFCURVE",
"80 -6 OFFCURVE",
"80 -68 CURVE SMOOTH",
"80 -151 OFFCURVE",
"161 -190 OFFCURVE",
"277 -190 CURVE SMOOTH",
"402 -190 OFFCURVE",
"487 -142 OFFCURVE",
"487 -59 CURVE SMOOTH",
"487 109 OFFCURVE",
"152 44 OFFCURVE",
"152 158 CURVE SMOOTH",
"152 186 OFFCURVE",
"173 216 OFFCURVE",
"220 239 CURVE"
);
},
{
closed = 0;
nodes = (
"273 555 LINE",
"177 555 OFFCURVE",
"101 495 OFFCURVE",
"101 394 CURVE SMOOTH",
"101 297 OFFCURVE",
"168 235 OFFCURVE",
"275 235 CURVE SMOOTH",
"380 235 OFFCURVE",
"449 294 OFFCURVE",
"449 391 CURVE SMOOTH",
"449 503 OFFCURVE",
"363 555 OFFCURVE",
"275 555 CURVE"
);
},
{
closed = 0;
nodes = (
"344 543 LINE",
"517 543 LINE"
);
}
);
width = 565;
}
);
leftKerningGroup = g.ss01;
rightKerningGroup = g.ss01;
},
{
glyphname = l.ss02;
layers = (
{
anchors = (
{
name = bottom;
position = "{109, 0}";
},
{
name = center;
position = "{140, 389}";
},
{
name = top;
position = "{209, 745}";
},
{
name = topright;
position = "{290, 745}";
}
);
layerId = master01;
paths = (
{
closed = 0;
nodes = (
"140 0 LINE",
"140 745 LINE"
);
}
);
width = 270;
},
{
anchors = (
{
name = bottom;
position = "{110, 0}";
},
{
name = center;
position = "{141, 389}";
},
{
name = top;
position = "{210, 745}";
},
{
name = topright;
position = "{291, 745}";
}
);
associatedMasterId = master01;
background = {
paths = (
{
closed = 0;
nodes = (
"141 0 LINE",
"141 745 LINE",
"139 745 LINE"
);
}
);
};
layerId = "573A570F-3C35-4DF0-AC90-CAC40F5D4875";
name = "Sep 10 21, 11:14";
paths = (
{
closed = 0;
nodes = (
"141 0 LINE",
"141 745 LINE",
"140 746 LINE"
);
}
);
width = 271;
}
);
leftKerningGroup = h;
leftMetricsKey = n;
rightKerningGroup = l.ss02;
},
{
glyphname = lslash.ss02;
layers = (
{
components = (
{
name = l.ss02;
}
);
layerId = master01;
paths = (
{
closed = 0;
nodes = (
"35 327 LINE",
"257 407 LINE"
);
}
);
width = 307;
}
);
leftKerningGroup = h;
rightKerningGroup = l.ss02;
},
{
glyphname = y.ss03;
layers = (
{
anchors = (
{
name = bottom;
position = "{303, 0}";
},
{
name = top;
position = "{294, 555}";
}
);
background = {
paths = (
{
closed = 0;
nodes = (
"466 155 LINE",
"426 87 OFFCURVE",
"354 20 OFFCURVE",
"266 20 CURVE SMOOTH",
"188 20 OFFCURVE",
"138 73 OFFCURVE",
"138 170 CURVE SMOOTH",
"138 555 LINE"
);
}
);
};
components = (
{
alignment = -1;
name = _module_g;
transform = "{1, 0, 0, 1, 120, 0}";
}
);
layerId = master01;
paths = (
{
closed = 0;
nodes = (
"466 155 LINE",
"426 87 OFFCURVE",
"354 20 OFFCURVE",
"266 20 CURVE SMOOTH",
"188 20 OFFCURVE",
"138 73 OFFCURVE",
"138 170 CURVE SMOOTH",
"138 555 LINE"
);
}
);
width = 606;
}
);
leftKerningGroup = n;
rightKerningGroup = n;
rightMetricsKey = "=|n";
},
{
glyphname = Delta;
layers = (
{
background = {
paths = (
{
closed = 0;
nodes = (
"100 8 LINE",
"100 0 LINE",
"600 0 LINE",
"600 10 LINE",
"355 675 LINE",
"345 675 LINE",
"100 10 LINE"
);
}
);
};
layerId = master01;
paths = (
{
closed = 0;
nodes = (
"100 8 LINE",
"100 0 LINE",
"600 0 LINE",
"600 10 LINE",
"355 675 LINE",
"345 675 LINE",
"100 10 LINE"
);
}
);
width = 700;
}
);
leftKerningGroup = A;
rightKerningGroup = A;
unicode = 03B4;
},
{
glyphname = pi;
layers = (
{
background = {
paths = (
{
closed = 0;
nodes = (
"560 4 LINE SMOOTH",
"553 2 OFFCURVE",
"542 0 OFFCURVE",
"529 0 CURVE SMOOTH",
"472 0 OFFCURVE",
"443 35 OFFCURVE",
"443 107 CURVE SMOOTH",
"443 555 LINE"
);
},
{
closed = 0;
nodes = (
"181 0 LINE",
"181 555 LINE"
);
},
{
closed = 0;
nodes = (
"564 555 LINE",
"70 555 LINE"
);
}
);
};
layerId = master01;
paths = (
{
closed = 0;
nodes = (
"560 4 LINE SMOOTH",
"553 2 OFFCURVE",
"542 0 OFFCURVE",
"529 0 CURVE SMOOTH",
"472 0 OFFCURVE",
"443 35 OFFCURVE",
"443 107 CURVE SMOOTH",
"443 555 LINE"
);
},
{
closed = 0;
nodes = (
"181 0 LINE",
"181 555 LINE"
);
},
{
closed = 0;
nodes = (
"564 555 LINE",
"70 555 LINE"
);
}
);
width = 644;
}
);
leftKerningGroup = pi;
rightKerningGroup = pi;
unicode = 03C0;
},
{
glyphname = Omega;
layers = (
{
background = {
paths = (
{
closed = 0;
nodes = (
"633 10 LINE",
"458 10 LINE",
"458 32 LINE",
"535 103 OFFCURVE",
"610 212 OFFCURVE",
"610 367 CURVE SMOOTH",
"610 546 OFFCURVE",
"510 680 OFFCURVE",
"362 680 CURVE SMOOTH",
"214 680 OFFCURVE",
"116 546 OFFCURVE",
"116 367 CURVE SMOOTH",
"116 212 OFFCURVE",
"188 103 OFFCURVE",
"265 32 CURVE",
"265 10 LINE",
"90 10 LINE"
);
}
);
};
layerId = master01;
paths = (
{
closed = 0;
nodes = (
"643 10 LINE",
"468 10 LINE",
"468 32 LINE",
"545 103 OFFCURVE",
"620 212 OFFCURVE",
"620 367 CURVE SMOOTH",
"620 548 OFFCURVE",
"520 680 OFFCURVE",
"372 680 CURVE SMOOTH",
"224 680 OFFCURVE",
"126 548 OFFCURVE",
"126 367 CURVE SMOOTH",
"126 212 OFFCURVE",
"198 103 OFFCURVE",
"275 32 CURVE",
"275 10 LINE",
"100 10 LINE"
);
}
);
width = 743;
}
);
leftKerningGroup = O;
rightKerningGroup = O;
unicode = 03C9;
},
{
glyphname = zero;
layers = (
{
background = {
paths = (
{
closed = 0;
nodes = (
"310 680 LINE",
"162 680 OFFCURVE",
"90 527 OFFCURVE",
"90 337 CURVE SMOOTH",
"90 145 OFFCURVE",
"162 0 OFFCURVE",
"311 0 CURVE SMOOTH",
"460 0 OFFCURVE",
"532 145 OFFCURVE",
"532 337 CURVE SMOOTH",
"532 527 OFFCURVE",
"460 680 OFFCURVE",
"312 680 CURVE"
);
}
);
};
layerId = master01;
paths = (
{
closed = 0;
nodes = (
"310 680 LINE",
"162 680 OFFCURVE",
"90 527 OFFCURVE",
"90 337 CURVE SMOOTH",
"90 145 OFFCURVE",
"162 0 OFFCURVE",
"311 0 CURVE SMOOTH",
"460 0 OFFCURVE",
"532 145 OFFCURVE",
"532 337 CURVE SMOOTH",
"532 527 OFFCURVE",
"460 680 OFFCURVE",
"312 680 CURVE"
);
}
);
width = 622;
}
);
leftKerningGroup = zero;
rightKerningGroup = zero;
unicode = 0030;
},
{
glyphname = one;
layers = (
{
associatedMasterId = master01;
background = {
paths = (
{
closed = 0;
nodes = (
"269 0 LINE",
"269 670 LINE",
"265 670 LINE",
"51 519 LINE"
);
}
);
};
layerId = "6EDA8715-3519-4E02-AC51-65A998ED1B68";
name = "Aug 5 21, 22:11";
paths = (
{
closed = 0;
nodes = (
"269 0 LINE",
"269 670 LINE",
"265 670 LINE",
"60 521 LINE"
);
}
);
width = 419;
},
{
layerId = master01;
paths = (
{
closed = 0;
nodes = (
"288 0 LINE",
"288 670 LINE",
"284 670 LINE",
"70 519 LINE"
);
}
);
width = 448;
}
);
leftKerningGroup = one;
rightKerningGroup = H;
unicode = 0031;
},
{
glyphname = two;
layers = (
{
background = {
paths = (
{
closed = 0;
nodes = (
"465 0 LINE",
"65 0 LINE",
"65 4 LINE",
"288 249 LINE SMOOTH",
"364 333 OFFCURVE",
"440 412 OFFCURVE",
"440 519 CURVE SMOOTH",
"440 628 OFFCURVE",
"361 680 OFFCURVE",
"274 680 CURVE SMOOTH",
"186 680 OFFCURVE",
"113 628 OFFCURVE",
"84 542 CURVE"
);
}
);
};
layerId = master01;
paths = (
{
closed = 0;
nodes = (
"465 0 LINE",
"65 0 LINE",
"65 4 LINE",
"288 249 LINE SMOOTH",
"364 333 OFFCURVE",
"440 412 OFFCURVE",
"440 519 CURVE SMOOTH",
"440 628 OFFCURVE",
"361 680 OFFCURVE",
"274 680 CURVE SMOOTH",
"186 680 OFFCURVE",
"113 628 OFFCURVE",
"84 542 CURVE"
);
}
);
width = 550;
}
);
leftKerningGroup = two;
rightKerningGroup = two;
unicode = 0032;
},
{
glyphname = three;
layers = (
{
background = {
paths = (
{
closed = 0;
nodes = (
"75 123 LINE",
"94 49 OFFCURVE",
"166 -1 OFFCURVE",
"263 -1 CURVE SMOOTH",
"381 -1 OFFCURVE",
"456 73 OFFCURVE",
"456 175 CURVE SMOOTH",
"456 264 OFFCURVE",
"400 359 OFFCURVE",
"249 359 CURVE",
"218 359 LINE"
);
},
{
closed = 0;
nodes = (
"249 359 LINE",
"383 359 OFFCURVE",
"446 436 OFFCURVE",
"446 526 CURVE SMOOTH",
"446 608 OFFCURVE",
"392 680 OFFCURVE",
"273 680 CURVE SMOOTH",
"177 680 OFFCURVE",
"119 632 OFFCURVE",
"87 579 CURVE"
);
}
);
};
layerId = master01;
paths = (
{
closed = 0;
nodes = (
"75 123 LINE",
"94 49 OFFCURVE",
"166 -1 OFFCURVE",
"263 -1 CURVE SMOOTH",
"381 -1 OFFCURVE",
"456 73 OFFCURVE",
"456 175 CURVE SMOOTH",
"456 264 OFFCURVE",
"400 359 OFFCURVE",
"249 359 CURVE",
"218 359 LINE"
);
},
{
closed = 0;
nodes = (
"249 359 LINE",
"383 359 OFFCURVE",
"446 436 OFFCURVE",
"446 526 CURVE SMOOTH",
"446 608 OFFCURVE",
"392 680 OFFCURVE",
"273 680 CURVE SMOOTH",
"177 680 OFFCURVE",
"119 632 OFFCURVE",
"90 579 CURVE"
);
}
);
width = 566;
}
);
leftKerningGroup = zero;
rightKerningGroup = zero;
unicode = 0033;
},
{
glyphname = four;
layers = (
{
background = {
paths = (
{
closed = 0;
nodes = (
"385 0 LINE",
"385 670 LINE",
"375 670 LINE",
"65 164 LINE",
"65 160 LINE",
"509 160 LINE"
);
}
);
};
layerId = master01;
paths = (
{
closed = 0;
nodes = (
"385 0 LINE",
"385 670 LINE",
"375 670 LINE",
"65 164 LINE",
"65 160 LINE",
"509 160 LINE"
);
}
);
width = 569;
}
);
leftKerningGroup = four;
rightKerningGroup = four;
unicode = 0034;
},
{
glyphname = five;
layers = (
{
background = {
paths = (
{
closed = 0;
nodes = (
"95 138 LINE SMOOTH",
"127 49 OFFCURVE",
"193 0 OFFCURVE",
"276 0 CURVE SMOOTH",
"385 0 OFFCURVE",
"467 84 OFFCURVE",
"467 208 CURVE SMOOTH",
"467 325 OFFCURVE",
"393 415 OFFCURVE",
"274 415 CURVE SMOOTH",
"228 415 OFFCURVE",
"169 402 OFFCURVE",
"127 376 CURVE",
"137 670 LINE",
"449 670 LINE"
);
}
);
};
layerId = master01;
paths = (
{
closed = 0;
nodes = (
"95 138 LINE SMOOTH",
"127 49 OFFCURVE",
"193 0 OFFCURVE",
"276 0 CURVE SMOOTH",
"385 0 OFFCURVE",
"467 84 OFFCURVE",
"467 208 CURVE SMOOTH",
"467 325 OFFCURVE",
"393 415 OFFCURVE",
"274 415 CURVE SMOOTH",
"228 415 OFFCURVE",
"169 402 OFFCURVE",
"127 376 CURVE",
"137 670 LINE",
"449 670 LINE"
);
}
);
width = 558;
}
);
leftKerningGroup = five;
rightKerningGroup = five;
unicode = 0035;
},
{
glyphname = six;
layers = (
{
layerId = master01;
paths = (
{
closed = 0;
nodes = (
"360 680 LINE",
"201 468 LINE SMOOTH",
"119 359 OFFCURVE",
"90 284 OFFCURVE",
"90 205 CURVE SMOOTH",
"90 105 OFFCURVE",
"144 0 OFFCURVE",
"292 0 CURVE SMOOTH",
"420 0 OFFCURVE",
"492 84 OFFCURVE",
"492 198 CURVE SMOOTH",
"492 324 OFFCURVE",
"401 401 OFFCURVE",
"298 401 CURVE SMOOTH",
"229 401 OFFCURVE",
"151 368 OFFCURVE",
"105 297 CURVE SMOOTH"
);
}
);
width = 567;
}
);
leftKerningGroup = six;
leftMetricsKey = zero;
rightKerningGroup = six;
rightMetricsKey = "=zero-15";
unicode = 0036;
},
{
glyphname = seven;
layers = (
{
layerId = master01;
paths = (
{
closed = 0;
nodes = (
"126 0 LINE",
"445 666 LINE",
"445 670 LINE",
"40 670 LINE"
);
}
);
width = 495;
}
);
leftKerningGroup = seven;
rightKerningGroup = seven;
unicode = 0037;
},
{
glyphname = eight;
layers = (
{
background = {
paths = (
{
closed = 0;
nodes = (
"268 680 LINE",
"367 680 OFFCURVE",
"436 618 OFFCURVE",
"436 536 CURVE SMOOTH",
"436 353 OFFCURVE",
"80 372 OFFCURVE",
"80 160 CURVE SMOOTH",
"80 58 OFFCURVE",
"171 0 OFFCURVE",
"268 0 CURVE SMOOTH",
"365 0 OFFCURVE",
"459 57 OFFCURVE",
"459 160 CURVE SMOOTH",
"459 371 OFFCURVE",
"102 348 OFFCURVE",
"102 538 CURVE SMOOTH",
"102 610 OFFCURVE",
"156 680 OFFCURVE",
"266 680 CURVE"
);
}
);
};
layerId = master01;
paths = (
{
closed = 0;
nodes = (
"278 680 LINE",
"377 680 OFFCURVE",
"446 618 OFFCURVE",
"446 537 CURVE SMOOTH",
"446 353 OFFCURVE",
"90 370 OFFCURVE",
"90 162 CURVE SMOOTH",
"90 57 OFFCURVE",
"181 0 OFFCURVE",
"278 0 CURVE SMOOTH",
"374 0 OFFCURVE",
"469 56 OFFCURVE",
"469 162 CURVE SMOOTH",
"469 368 OFFCURVE",
"112 350 OFFCURVE",
"112 537 CURVE SMOOTH",
"112 610 OFFCURVE",
"166 680 OFFCURVE",
"276 680 CURVE"
);
}
);
width = 559;
}
);
leftKerningGroup = zero;
leftMetricsKey = zero;
rightKerningGroup = zero;
rightMetricsKey = zero;
unicode = 0038;
},
{
glyphname = zero.zero;
layers = (
{
components = (
{
name = zero;
}
);
layerId = master01;
paths = (
{
closed = 0;
nodes = (
"158 79 LINE",
"469 592 LINE"
);
}
);
width = 622;
}
);
leftKerningGroup = zero;
leftMetricsKey = zero;
rightKerningGroup = zero;
rightMetricsKey = zero;
},
{
glyphname = zero.osf;
layers = (
{
background = {
paths = (
{
closed = 0;
nodes = (
"309 575 LINE SMOOTH",
"164 575 OFFCURVE",
"90 444 OFFCURVE",
"90 287 CURVE SMOOTH",
"90 125 OFFCURVE",
"166 0 OFFCURVE",
"310 0 CURVE SMOOTH",
"455 0 OFFCURVE",
"530 125 OFFCURVE",
"530 287 CURVE SMOOTH",
"530 444 OFFCURVE",
"456 575 OFFCURVE",
"311 575 CURVE"
);
}
);
};
layerId = master01;
paths = (
{
closed = 0;
nodes = (
"309 575 LINE SMOOTH",
"164 575 OFFCURVE",
"90 444 OFFCURVE",
"90 287 CURVE SMOOTH",
"90 125 OFFCURVE",
"166 0 OFFCURVE",
"310 0 CURVE SMOOTH",
"455 0 OFFCURVE",
"530 125 OFFCURVE",
"530 287 CURVE SMOOTH",
"530 444 OFFCURVE",
"456 575 OFFCURVE",
"311 575 CURVE"
);
}
);
width = 620;
}
);
leftKerningGroup = zero.osf;
rightKerningGroup = zero.osf;
},
{
glyphname = one.osf;
layers = (
{
layerId = master01;
paths = (
{
closed = 0;
nodes = (
"293 0 LINE",
"293 565 LINE",
"289 565 LINE",
"95 424 LINE"
);
}
);
width = 443;
}
);
leftKerningGroup = one.osf;
rightKerningGroup = one.osf;
},
{
glyphname = two.osf;
layers = (
{
background = {
paths = (
{
closed = 0;
nodes = (
"480 0 LINE",
"85 0 LINE",
"85 4 LINE",
"216 121 LINE SMOOTH",
"297 193 OFFCURVE",
"440 312 OFFCURVE",
"440 431 CURVE SMOOTH",
"440 510 OFFCURVE",
"383 575 OFFCURVE",
"282 575 CURVE SMOOTH",
"186 575 OFFCURVE",
"124 516 OFFCURVE",
"101 443 CURVE"
);
}
);
};
layerId = master01;
paths = (
{
closed = 0;
nodes = (
"480 0 LINE",
"85 0 LINE",
"85 4 LINE",
"216 121 LINE SMOOTH",
"297 193 OFFCURVE",
"440 312 OFFCURVE",
"440 431 CURVE SMOOTH",
"440 510 OFFCURVE",
"383 575 OFFCURVE",
"282 575 CURVE SMOOTH",
"186 575 OFFCURVE",
"124 516 OFFCURVE",
"101 443 CURVE"
);
}
);
width = 570;
},
{
associatedMasterId = master01;
background = {
paths = (
{
closed = 0;
nodes = (
"463 0 LINE",
"75 0 LINE",
"75 4 LINE",
"204 121 LINE SMOOTH",
"285 195 OFFCURVE",
"435 312 OFFCURVE",
"435 437 CURVE SMOOTH",
"435 510 OFFCURVE",
"384 575 OFFCURVE",
"273 575 CURVE SMOOTH",
"169 575 OFFCURVE",
"113 517 OFFCURVE",
"91 443 CURVE"
);
}
);
};
layerId = "F8202501-1B29-487A-B541-D93EABC9D375";
name = "Sep 17 21, 19:05";
paths = (
{
closed = 0;
nodes = (
"473 0 LINE",
"85 0 LINE",
"85 4 LINE",
"214 121 LINE SMOOTH",
"293 193 OFFCURVE",
"435 312 OFFCURVE",
"435 437 CURVE SMOOTH",
"435 510 OFFCURVE",
"387 575 OFFCURVE",
"283 575 CURVE SMOOTH",
"179 575 OFFCURVE",
"123 517 OFFCURVE",
"101 443 CURVE"
);
}
);
width = 563;
},
{
associatedMasterId = master01;
background = {
paths = (
{
closed = 0;
nodes = (
"464 -73 LINE",
"83 -73 LINE",
"83 -69 LINE",
"296 165 LINE SMOOTH",
"368 245 OFFCURVE",
"440 319 OFFCURVE",
"440 421 CURVE SMOOTH",
"440 525 OFFCURVE",
"365 575 OFFCURVE",
"282 575 CURVE SMOOTH",
"198 575 OFFCURVE",
"128 525 OFFCURVE",
"101 443 CURVE"
);
}
);
};
layerId = "44DBC83B-AF4E-4452-9284-D47C848D5190";
name = "Sep 18 21, 09:24";
paths = (
{
closed = 0;
nodes = (
"480 0 LINE",
"85 0 LINE",
"85 4 LINE",
"216 121 LINE SMOOTH",
"297 193 OFFCURVE",
"440 312 OFFCURVE",
"440 437 CURVE SMOOTH",
"440 510 OFFCURVE",
"392 575 OFFCURVE",
"283 575 CURVE SMOOTH",
"181 575 OFFCURVE",
"123 517 OFFCURVE",
"101 443 CURVE"
);
}
);
width = 570;
}
);
leftKerningGroup = two.osf;
rightKerningGroup = two.osf;
},
{
glyphname = three.osf;
layers = (
{
background = {
paths = (
{
closed = 0;
nodes = (
"65 7 LINE",
"82 -63 OFFCURVE",
"154 -117 OFFCURVE",
"250 -117 CURVE SMOOTH",
"364 -117 OFFCURVE",
"446 -41 OFFCURVE",
"446 67 CURVE SMOOTH",
"446 172 OFFCURVE",
"368 250 OFFCURVE",
"239 250 CURVE",
"208 250 LINE"
);
},
{
closed = 0;
nodes = (
"239 250 LINE",
"359 250 OFFCURVE",
"436 312 OFFCURVE",
"436 412 CURVE SMOOTH",
"436 492 OFFCURVE",
"387 575 OFFCURVE",
"261 575 CURVE SMOOTH",
"165 575 OFFCURVE",
"109 526 OFFCURVE",
"77 473 CURVE"
);
}
);
};
guideLines = (
{
position = "{289, -64}";
},
{
position = "{19, -165}";
}
);
layerId = master01;
paths = (
{
closed = 0;
nodes = (
"65 7 LINE",
"82 -63 OFFCURVE",
"154 -117 OFFCURVE",
"250 -117 CURVE SMOOTH",
"364 -117 OFFCURVE",
"446 -41 OFFCURVE",
"446 67 CURVE SMOOTH",
"446 172 OFFCURVE",
"368 250 OFFCURVE",
"239 250 CURVE",
"208 250 LINE"
);
},
{
closed = 0;
nodes = (
"239 250 LINE",
"359 250 OFFCURVE",
"436 312 OFFCURVE",
"436 412 CURVE SMOOTH",
"436 492 OFFCURVE",
"387 575 OFFCURVE",
"261 575 CURVE SMOOTH",
"165 575 OFFCURVE",
"109 526 OFFCURVE",
"80 473 CURVE"
);
}
);
width = 551;
}
);
leftKerningGroup = zero.osf;
rightKerningGroup = zero.osf;
},
{
glyphname = four.osf;
layers = (
{
background = {
paths = (
{
closed = 0;
nodes = (
"383 -133 LINE",
"383 565 LINE",
"373 565 LINE",
"60 31 LINE",
"60 27 LINE",
"507 27 LINE"
);
}
);
};
guideLines = (
{
position = "{124, -64}";
},
{
position = "{495, -64}";
},
{
position = "{545, -64}";
}
);
layerId = master01;
paths = (
{
closed = 0;
nodes = (
"383 -133 LINE",
"383 565 LINE",
"373 565 LINE",
"60 31 LINE",
"60 27 LINE",
"507 27 LINE"
);
}
);
width = 567;
}
);
leftKerningGroup = four.osf;
rightKerningGroup = four.osf;
},
{
glyphname = five.osf;
layers = (
{
background = {
paths = (
{
closed = 0;
nodes = (
"105 8 LINE SMOOTH",
"132 -66 OFFCURVE",
"201 -117 OFFCURVE",
"283 -117 CURVE SMOOTH",
"378 -117 OFFCURVE",
"468 -49 OFFCURVE",
"471 85 CURVE SMOOTH",
"474 205 OFFCURVE",
"401 295 OFFCURVE",
"276 295 CURVE SMOOTH",
"223 295 OFFCURVE",
"174 279 OFFCURVE",
"134 257 CURVE",
"144 565 LINE",
"454 565 LINE"
);
}
);
};
guideLines = (
{
position = "{47, -64}";
},
{
position = "{47, -165}";
},
{
position = "{47, 158}";
}
);
layerId = master01;
paths = (
{
closed = 0;
nodes = (
"105 8 LINE SMOOTH",
"132 -66 OFFCURVE",
"201 -117 OFFCURVE",
"283 -117 CURVE SMOOTH",
"378 -117 OFFCURVE",
"468 -49 OFFCURVE",
"471 85 CURVE SMOOTH",
"474 205 OFFCURVE",
"401 295 OFFCURVE",
"276 295 CURVE SMOOTH",
"223 295 OFFCURVE",
"174 279 OFFCURVE",
"134 257 CURVE",
"144 565 LINE",
"454 565 LINE"
);
}
);
width = 566;
}
);
leftKerningGroup = five.osf;
rightKerningGroup = five.osf;
},
{
glyphname = six.osf;
layers = (
{
background = {
paths = (
{
closed = 0;
nodes = (
"374 706 LINE",
"258 591 OFFCURVE",
"80 368 OFFCURVE",
"80 205 CURVE SMOOTH",
"80 123 OFFCURVE",
"131 0 OFFCURVE",
"282 0 CURVE SMOOTH",
"410 0 OFFCURVE",
"482 92 OFFCURVE",
"482 198 CURVE SMOOTH",
"482 311 OFFCURVE",
"401 401 OFFCURVE",
"287 401 CURVE SMOOTH",
"218 401 OFFCURVE",
"141 368 OFFCURVE",
"95 297 CURVE SMOOTH"
);
}
);
};
layerId = master01;
paths = (
{
closed = 0;
nodes = (
"384 706 LINE",
"268 591 OFFCURVE",
"90 368 OFFCURVE",
"90 205 CURVE SMOOTH",
"90 123 OFFCURVE",
"141 0 OFFCURVE",
"292 0 CURVE SMOOTH",
"420 0 OFFCURVE",
"492 92 OFFCURVE",
"492 198 CURVE SMOOTH",
"492 311 OFFCURVE",
"411 401 OFFCURVE",
"297 401 CURVE SMOOTH",
"228 401 OFFCURVE",
"151 368 OFFCURVE",
"105 297 CURVE SMOOTH"
);
}
);
width = 572;
}
);
leftKerningGroup = six.osf;
leftMetricsKey = zero.osf;
rightKerningGroup = six.osf;
rightMetricsKey = "=zero.osf-10";
},
{
glyphname = seven.osf;
layers = (
{
guideLines = (
{
position = "{48, 701}";
}
);
layerId = master01;
paths = (
{
closed = 0;
nodes = (
"112 -117 LINE",
"435 561 LINE",
"435 565 LINE",
"40 565 LINE"
);
}
);
width = 495;
}
);
leftKerningGroup = seven.osf;
rightKerningGroup = seven.osf;
},
{
glyphname = eight.osf;
layers = (
{
background = {
paths = (
{
closed = 0;
nodes = (
"268 706 LINE",
"367 706 OFFCURVE",
"436 655 OFFCURVE",
"436 569 CURVE SMOOTH",
"436 376 OFFCURVE",
"80 372 OFFCURVE",
"80 170 CURVE SMOOTH",
"80 70 OFFCURVE",
"156 0 OFFCURVE",
"270 0 CURVE SMOOTH",
"394 0 OFFCURVE",
"459 81 OFFCURVE",
"459 171 CURVE SMOOTH",
"459 360 OFFCURVE",
"103 379 OFFCURVE",
"102 571 CURVE SMOOTH",
"102 646 OFFCURVE",
"167 706 OFFCURVE",
"266 706 CURVE"
);
}
);
};
layerId = master01;
paths = (
{
closed = 0;
nodes = (
"278 706 LINE",
"377 706 OFFCURVE",
"446 655 OFFCURVE",
"446 569 CURVE SMOOTH",
"446 374 OFFCURVE",
"90 375 OFFCURVE",
"90 167 CURVE SMOOTH",
"90 71 OFFCURVE",
"166 0 OFFCURVE",
"280 0 CURVE SMOOTH",
"404 0 OFFCURVE",
"469 83 OFFCURVE",
"469 167 CURVE SMOOTH",
"469 363 OFFCURVE",
"112 381 OFFCURVE",
"112 567 CURVE SMOOTH",
"112 647 OFFCURVE",
"177 706 OFFCURVE",
"276 706 CURVE"
);
}
);
width = 559;
}
);
leftKerningGroup = zero.osf;
leftMetricsKey = zero.osf;
rightKerningGroup = zero.osf;
rightMetricsKey = zero.osf;
},
{
glyphname = zero.osf.zero;
layers = (
{
components = (
{
name = zero.osf;
}
);
layerId = master01;
paths = (
{
closed = 0;
nodes = (
"168 59 LINE",
"457 510 LINE"
);
}
);
width = 620;
}
);
leftKerningGroup = zero.osf;
leftMetricsKey = zero.osf;
rightKerningGroup = zero.osf;
rightMetricsKey = zero.osf;
},
{
glyphname = fraction;
layers = (
{
layerId = master01;
paths = (
{
closed = 0;
nodes = (
"-120 0 LINE",
"237 680 LINE"
);
}
);
width = 117;
}
);
leftKerningGroup = fraction;
rightKerningGroup = fraction;
unicode = 2044;
},
{
glyphname = .notdef;
layers = (
{
layerId = master01;
paths = (
{
closed = 0;
nodes = (
"140 680 LINE",
"530 680 LINE",
"530 0 LINE",
"140 0 LINE",
"140 679 LINE"
);
},
{
closed = 0;
nodes = (
"530 680 LINE",
"140 0 LINE"
);
}
);
width = 670;
}
);
leftKerningGroup = H;
leftMetricsKey = H;
rightKerningGroup = H;
rightMetricsKey = H;
},
{
glyphname = period;
layers = (
{
background = {
paths = (
{
closed = 0;
nodes = (
"150 72 LINE",
"127 72 OFFCURVE",
"110 54 OFFCURVE",
"110 31 CURVE SMOOTH",
"110 8 OFFCURVE",
"128 -10 OFFCURVE",
"151 -10 CURVE SMOOTH",
"174 -10 OFFCURVE",
"191 8 OFFCURVE",
"191 31 CURVE SMOOTH",
"191 54 OFFCURVE",
"174 72 OFFCURVE",
"152 72 CURVE"
);
}
);
};
layerId = master01;
paths = (
{
closed = 0;
nodes = (
"150 72 LINE",
"127 72 OFFCURVE",
"110 54 OFFCURVE",
"110 31 CURVE SMOOTH",
"110 8 OFFCURVE",
"128 -10 OFFCURVE",
"151 -10 CURVE SMOOTH",
"174 -10 OFFCURVE",
"191 8 OFFCURVE",
"191 31 CURVE SMOOTH",
"191 54 OFFCURVE",
"174 72 OFFCURVE",
"152 72 CURVE"
);
}
);
width = 301;
}
);
leftKerningGroup = period;
rightKerningGroup = period;
unicode = 002E;
},
{
glyphname = comma;
layers = (
{
background = {
paths = (
{
closed = 0;
nodes = (
"104 67 LINE",
"158 67 LINE",
"158 13 LINE",
"80 -142 LINE"
);
}
);
};
layerId = master01;
paths = (
{
closed = 0;
nodes = (
"90 -142 LINE",
"168 13 LINE",
"168 67 LINE",
"114 67 LINE"
);
}
);
width = 258;
}
);
leftKerningGroup = comma;
rightKerningGroup = comma;
unicode = 002C;
},
{
glyphname = exclam;
layers = (
{
components = (
{
name = period;
transform = "{1, 0, 0, 1, 20, 0}";
}
);
layerId = master01;
paths = (
{
closed = 0;
nodes = (
"172 184 LINE",
"172 680 LINE"
);
}
);
width = 341;
}
);
leftKerningGroup = exclam;
rightKerningGroup = exclam;
unicode = 0021;
},
{
glyphname = question;
layers = (
{
background = {
paths = (
{
closed = 0;
nodes = (
"215 180 LINE",
"215 242 LINE SMOOTH",
"215 293 OFFCURVE",
"232 325 OFFCURVE",
"292 377 CURVE SMOOTH",
"332 412 OFFCURVE",
"373 463 OFFCURVE",
"373 534 CURVE SMOOTH",
"373 617 OFFCURVE",
"317 680 OFFCURVE",
"220 680 CURVE SMOOTH",
"154 680 OFFCURVE",
"86 650 OFFCURVE",
"60 575 CURVE"
);
}
);
};
components = (
{
name = period;
transform = "{1, 0, 0, 1, 79, 0}";
}
);
layerId = master01;
paths = (
{
closed = 0;
nodes = (
"225 180 LINE",
"225 242 LINE SMOOTH",
"225 293 OFFCURVE",
"242 325 OFFCURVE",
"302 377 CURVE SMOOTH",
"342 412 OFFCURVE",
"383 463 OFFCURVE",
"383 534 CURVE SMOOTH",
"383 617 OFFCURVE",
"327 680 OFFCURVE",
"230 680 CURVE SMOOTH",
"164 680 OFFCURVE",
"96 650 OFFCURVE",
"70 575 CURVE"
);
}
);
width = 493;
}
);
leftKerningGroup = question;
rightKerningGroup = question;
unicode = 003F;
},
{
glyphname = bullet;
layers = (
{
layerId = master01;
paths = (
{
closed = 0;
nodes = (
"214 446 LINE",
"156 446 OFFCURVE",
"110 399 OFFCURVE",
"110 341 CURVE SMOOTH",
"110 284 OFFCURVE",
"157 237 OFFCURVE",
"215 237 CURVE SMOOTH",
"273 237 OFFCURVE",
"320 284 OFFCURVE",
"320 341 CURVE SMOOTH",
"320 399 OFFCURVE",
"273 446 OFFCURVE",
"215 446 CURVE"
);
}
);
width = 430;
}
);
leftKerningGroup = bullet;
leftMetricsKey = period;
rightKerningGroup = bullet;
rightMetricsKey = period;
unicode = 2022;
},
{
glyphname = asterisk;
layers = (
{
layerId = master01;
paths = (
{
closed = 0;
nodes = (
"312 385 LINE",
"216 520 LINE",
"120 385 LINE"
);
},
{
closed = 0;
nodes = (
"60 565 LINE",
"216 520 LINE",
"372 565 LINE"
);
},
{
closed = 0;
nodes = (
"216 519 LINE",
"216 680 LINE"
);
}
);
width = 432;
}
);
leftKerningGroup = asterisk;
rightKerningGroup = asterisk;
unicode = 002A;
},
{
glyphname = asterism;
layers = (
{
layerId = master01;
paths = (
{
closed = 0;
nodes = (
"572 385 LINE",
"476 520 LINE",
"380 385 LINE"
);
},
{
closed = 0;
nodes = (
"332 10 LINE",
"236 145 LINE",
"140 10 LINE"
);
},
{
closed = 0;
nodes = (
"80 190 LINE",
"236 145 LINE",
"392 190 LINE"
);
},
{
closed = 0;
nodes = (
"236 144 LINE",
"236 305 LINE"
);
},
{
closed = 0;
nodes = (
"812 10 LINE",
"716 145 LINE",
"620 10 LINE"
);
},
{
closed = 0;
nodes = (
"560 190 LINE",
"716 145 LINE",
"872 190 LINE"
);
},
{
closed = 0;
nodes = (
"716 144 LINE",
"716 305 LINE"
);
},
{
closed = 0;
nodes = (
"320 565 LINE",
"476 520 LINE",
"632 565 LINE"
);
},
{
closed = 0;
nodes = (
"476 519 LINE",
"476 680 LINE"
);
}
);
width = 952;
}
);
leftKerningGroup = asterism;
rightKerningGroup = asterism;
unicode = 2042;
},
{
glyphname = numbersign;
layers = (
{
layerId = master01;
paths = (
{
closed = 0;
nodes = (
"355 0 LINE",
"449 680 LINE"
);
},
{
closed = 0;
nodes = (
"60 237 LINE",
"521 237 LINE"
);
},
{
closed = 0;
nodes = (
"160 0 LINE",
"254 680 LINE"
);
},
{
closed = 0;
nodes = (
"90 447 LINE",
"551 447 LINE"
);
}
);
width = 611;
}
);
leftKerningGroup = numbersign;
rightKerningGroup = numbersign;
unicode = 0023;
},
{
glyphname = slash;
layers = (
{
associatedMasterId = master01;
background = {
paths = (
{
closed = 0;
nodes = (
"55 0 LINE",
"352 680 LINE"
);
}
);
};
layerId = "A356D1F2-74A9-4916-B057-0B50178F140A";
name = "Sep 18 21, 17:33";
paths = (
{
closed = 0;
nodes = (
"53 -5 LINE",
"354 685 LINE"
);
}
);
width = 407;
},
{
background = {
paths = (
{
closed = 0;
nodes = (
"55 0 LINE",
"352 680 LINE"
);
}
);
};
layerId = master01;
paths = (
{
closed = 0;
nodes = (
"50 -10 LINE",
"357 690 LINE"
);
}
);
width = 407;
}
);
leftKerningGroup = slash;
rightKerningGroup = slash;
unicode = 002F;
},
{
glyphname = hyphen;
layers = (
{
layerId = master01;
paths = (
{
closed = 0;
nodes = (
"100 278 LINE",
"317 278 LINE"
);
}
);
width = 417;
},
{
associatedMasterId = master01;
layerId = "5CEF9695-B009-46E6-84D5-B5CFA92F33D5";
name = "Sep 10 21, 11:15";
paths = (
{
closed = 0;
nodes = (
"317 278 LINE",
"100 278 LINE",
"100 279 LINE"
);
}
);
width = 417;
}
);
leftKerningGroup = hyphen;
rightKerningGroup = hyphen;
unicode = 002D;
},
{
glyphname = endash;
layers = (
{
layerId = master01;
paths = (
{
closed = 0;
nodes = (
"60 278 LINE",
"552 278 LINE"
);
}
);
width = 612;
},
{
associatedMasterId = master01;
layerId = "FF707DE9-247F-45FF-90C0-91E1CE9E969D";
name = "Sep 10 21, 11:15";
paths = (
{
closed = 0;
nodes = (
"552 278 LINE",
"60 278 LINE",
"60 279 LINE"
);
}
);
width = 612;
}
);
leftKerningGroup = hyphen;
rightKerningGroup = hyphen;
unicode = 2013;
},
{
glyphname = emdash;
layers = (
{
layerId = master01;
paths = (
{
closed = 0;
nodes = (
"60 278 LINE",
"826 278 LINE"
);
}
);
width = 886;
},
{
associatedMasterId = master01;
layerId = "26033D92-2C16-422F-B901-0365ABD6CE5E";
name = "Sep 10 21, 11:38";
paths = (
{
closed = 0;
nodes = (
"826 278 LINE",
"60 278 LINE",
"60 279 LINE"
);
}
);
width = 886;
}
);
leftKerningGroup = hyphen;
rightKerningGroup = hyphen;
unicode = 2014;
},
{
glyphname = underscore;
layers = (
{
layerId = master01;
paths = (
{
closed = 0;
nodes = (
"400 -155 LINE",
"10 -155 LINE"
);
}
);
width = 410;
},
{
associatedMasterId = master01;
layerId = "2F9E6B99-26EA-469F-8BDB-F92118F8DC27";
name = "Sep 10 21, 11:39";
paths = (
{
closed = 0;
nodes = (
"10 -154 LINE",
"10 -155 LINE",
"400 -155 LINE"
);
}
);
width = 410;
}
);
leftKerningGroup = underscore;
rightKerningGroup = underscore;
unicode = 005F;
},
{
glyphname = parenleft;
layers = (
{
background = {
paths = (
{
closed = 0;
nodes = (
"220 -116 LINE SMOOTH",
"149 -2 OFFCURVE",
"90 139 OFFCURVE",
"90 307 CURVE SMOOTH",
"90 475 OFFCURVE",
"134 606 OFFCURVE",
"220 731 CURVE"
);
}
);
};
layerId = master01;
paths = (
{
closed = 0;
nodes = (
"230 -116 LINE SMOOTH",
"159 -2 OFFCURVE",
"100 139 OFFCURVE",
"100 307 CURVE SMOOTH",
"100 475 OFFCURVE",
"144 606 OFFCURVE",
"230 731 CURVE"
);
}
);
width = 300;
}
);
leftKerningGroup = parenleft;
rightKerningGroup = parenleft;
unicode = 0028;
},
{
glyphname = braceleft;
layers = (
{
background = {
paths = (
{
closed = 0;
nodes = (
"321 -124 LINE",
"289 -124 LINE SMOOTH",
"235 -124 OFFCURVE",
"195 -99 OFFCURVE",
"199 -25 CURVE SMOOTH",
"209 141 LINE SMOOTH",
"215 235 OFFCURVE",
"172 253 OFFCURVE",
"106 253 CURVE SMOOTH",
"90 253 LINE",
"90 337 LINE",
"106 337 LINE SMOOTH",
"172 337 OFFCURVE",
"215 355 OFFCURVE",
"209 449 CURVE SMOOTH",
"199 615 LINE SMOOTH",
"195 689 OFFCURVE",
"235 714 OFFCURVE",
"289 714 CURVE SMOOTH",
"321 714 LINE"
);
}
);
};
layerId = master01;
paths = (
{
closed = 0;
nodes = (
"331 -124 LINE",
"299 -124 LINE SMOOTH",
"245 -124 OFFCURVE",
"205 -99 OFFCURVE",
"209 -25 CURVE SMOOTH",
"219 141 LINE SMOOTH",
"225 235 OFFCURVE",
"182 253 OFFCURVE",
"116 253 CURVE SMOOTH",
"100 253 LINE",
"100 337 LINE",
"116 337 LINE SMOOTH",
"182 337 OFFCURVE",
"225 355 OFFCURVE",
"219 449 CURVE SMOOTH",
"209 615 LINE SMOOTH",
"205 689 OFFCURVE",
"245 714 OFFCURVE",
"299 714 CURVE SMOOTH",
"331 714 LINE"
);
}
);
width = 381;
}
);
leftKerningGroup = braceleft;
rightKerningGroup = braceleft;
unicode = 007B;
},
{
glyphname = bracketleft;
layers = (
{
background = {
paths = (
{
closed = 0;
nodes = (
"205 731 LINE",
"90 731 LINE",
"90 -116 LINE",
"205 -116 LINE"
);
}
);
};
layerId = master01;
paths = (
{
closed = 0;
nodes = (
"225 -116 LINE",
"100 -116 LINE",
"100 731 LINE",
"225 731 LINE"
);
}
);
width = 295;
}
);
leftKerningGroup = bracketleft;
rightKerningGroup = bracketleft;
unicode = 005B;
},
{
glyphname = guilsinglleft;
layers = (
{
background = {
paths = (
{
closed = 0;
nodes = (
"220 77 LINE",
"60 276 LINE",
"60 286 LINE",
"218 485 LINE"
);
}
);
};
layerId = master01;
paths = (
{
closed = 0;
nodes = (
"220 77 LINE",
"60 276 LINE",
"60 286 LINE",
"218 485 LINE"
);
}
);
width = 320;
}
);
leftKerningGroup = guilsinglleft;
rightKerningGroup = guilsinglleft;
unicode = 2039;
},
{
glyphname = florin;
layers = (
{
background = {
paths = (
{
closed = 0;
nodes = (
"30 -109 LINE",
"44 -119 OFFCURVE",
"66 -125 OFFCURVE",
"91 -125 CURVE SMOOTH",
"136 -125 OFFCURVE",
"180 -104 OFFCURVE",
"199 -20 CURVE SMOOTH",
"332 575 LINE SMOOTH",
"351 659 OFFCURVE",
"398 680 OFFCURVE",
"452 680 CURVE SMOOTH",
"481 680 OFFCURVE",
"499 673 OFFCURVE",
"519 660 CURVE"
);
},
{
closed = 0;
nodes = (
"164 383 LINE",
"416 383 LINE"
);
}
);
};
layerId = master01;
paths = (
{
closed = 0;
nodes = (
"30 -109 LINE",
"44 -119 OFFCURVE",
"66 -125 OFFCURVE",
"91 -125 CURVE SMOOTH",
"136 -125 OFFCURVE",
"180 -104 OFFCURVE",
"199 -20 CURVE SMOOTH",
"332 575 LINE SMOOTH",
"351 659 OFFCURVE",
"398 680 OFFCURVE",
"452 680 CURVE SMOOTH",
"481 680 OFFCURVE",
"499 673 OFFCURVE",
"519 660 CURVE"
);
},
{
closed = 0;
nodes = (
"164 383 LINE",
"416 383 LINE"
);
}
);
width = 549;
}
);
leftKerningGroup = florin;
rightKerningGroup = florin;
unicode = 0192;
},
{
glyphname = mediumWhiteCircle;
layers = (
{
layerId = master01;
paths = (
{
closed = 0;
nodes = (
"356 555 LINE",
"204 555 OFFCURVE",
"80 431 OFFCURVE",
"80 278 CURVE SMOOTH",
"80 124 OFFCURVE",
"204 0 OFFCURVE",
"358 0 CURVE SMOOTH",
"511 0 OFFCURVE",
"635 124 OFFCURVE",
"635 278 CURVE SMOOTH",
"635 431 OFFCURVE",
"511 555 OFFCURVE",
"359 555 CURVE"
);
}
);
width = 715;
}
);
leftKerningGroup = o;
rightKerningGroup = o;
unicode = 26AA;
},
{
glyphname = at;
layers = (
{
background = {
paths = (
{
closed = 0;
nodes = (
"313 388 LINE",
"337 441 OFFCURVE",
"371 468 OFFCURVE",
"428 468 CURVE SMOOTH",
"511 468 OFFCURVE",
"538 412 OFFCURVE",
"538 345 CURVE SMOOTH",
"538 167 LINE SMOOTH",
"538 131 OFFCURVE",
"555 82 OFFCURVE",
"615 82 CURVE SMOOTH",
"697 82 OFFCURVE",
"767 173 OFFCURVE",
"767 308 CURVE SMOOTH",
"767 495 OFFCURVE",
"629 632 OFFCURVE",
"447 632 CURVE SMOOTH",
"257 632 OFFCURVE",
"95 494 OFFCURVE",
"95 272 CURVE SMOOTH",
"95 55 OFFCURVE",
"241 -86 OFFCURVE",
"456 -86 CURVE SMOOTH",
"529 -86 OFFCURVE",
"586 -69 OFFCURVE",
"632 -42 CURVE"
);
},
{
closed = 0;
nodes = (
"538 171 LINE SMOOTH",
"500 121 OFFCURVE",
"453 82 OFFCURVE",
"393 82 CURVE SMOOTH",
"327 82 OFFCURVE",
"297 128 OFFCURVE",
"297 182 CURVE SMOOTH",
"297 260 OFFCURVE",
"358 296 OFFCURVE",
"496 296 CURVE SMOOTH",
"496 296 OFFCURVE",
"538 296 OFFCURVE",
"538 296 CURVE"
);
}
);
};
layerId = master01;
paths = (
{
closed = 0;
nodes = (
"313 388 LINE",
"337 441 OFFCURVE",
"371 468 OFFCURVE",
"428 468 CURVE SMOOTH",
"511 468 OFFCURVE",
"538 412 OFFCURVE",
"538 345 CURVE SMOOTH",
"538 167 LINE SMOOTH",
"538 131 OFFCURVE",
"555 82 OFFCURVE",
"615 82 CURVE SMOOTH",
"697 82 OFFCURVE",
"767 173 OFFCURVE",
"767 308 CURVE SMOOTH",
"767 495 OFFCURVE",
"629 632 OFFCURVE",
"447 632 CURVE SMOOTH",
"257 632 OFFCURVE",
"95 494 OFFCURVE",
"95 272 CURVE SMOOTH",
"95 55 OFFCURVE",
"241 -86 OFFCURVE",
"456 -86 CURVE SMOOTH",
"529 -86 OFFCURVE",
"586 -69 OFFCURVE",
"632 -42 CURVE"
);
},
{
closed = 0;
nodes = (
"538 171 LINE SMOOTH",
"500 121 OFFCURVE",
"453 82 OFFCURVE",
"393 82 CURVE SMOOTH",
"327 82 OFFCURVE",
"297 128 OFFCURVE",
"297 182 CURVE SMOOTH",
"297 260 OFFCURVE",
"358 296 OFFCURVE",
"496 296 CURVE SMOOTH",
"496 296 OFFCURVE",
"538 296 OFFCURVE",
"538 296 CURVE"
);
}
);
width = 862;
},
{
associatedMasterId = master01;
background = {
paths = (
{
closed = 0;
nodes = (
"627 -35 LINE",
"581 -59 OFFCURVE",
"524 -76 OFFCURVE",
"456 -76 CURVE SMOOTH",
"231 -76 OFFCURVE",
"90 62 OFFCURVE",
"90 276 CURVE SMOOTH",
"90 482 OFFCURVE",
"246 632 OFFCURVE",
"446 632 CURVE SMOOTH",
"629 632 OFFCURVE",
"762 502 OFFCURVE",
"762 326 CURVE SMOOTH",
"762 161 OFFCURVE",
"679 82 OFFCURVE",
"597 82 CURVE SMOOTH",
"537 82 OFFCURVE",
"533 124 OFFCURVE",
"533 167 CURVE SMOOTH",
"533 345 LINE SMOOTH",
"533 412 OFFCURVE",
"506 468 OFFCURVE",
"425 468 CURVE SMOOTH",
"366 468 OFFCURVE",
"332 441 OFFCURVE",
"308 388 CURVE"
);
},
{
closed = 0;
nodes = (
"533 296 LINE",
"533 296 OFFCURVE",
"491 296 OFFCURVE",
"491 296 CURVE SMOOTH",
"350 296 OFFCURVE",
"292 260 OFFCURVE",
"292 177 CURVE SMOOTH",
"292 130 OFFCURVE",
"322 82 OFFCURVE",
"387 82 CURVE SMOOTH",
"448 82 OFFCURVE",
"495 121 OFFCURVE",
"533 171 CURVE SMOOTH"
);
}
);
};
layerId = "F1AECB6C-5EAE-4127-9428-DB7E31D836FF";
name = "Jun 2 21, 11:30";
paths = (
{
closed = 0;
nodes = (
"308 388 LINE",
"332 441 OFFCURVE",
"366 468 OFFCURVE",
"425 468 CURVE SMOOTH",
"506 468 OFFCURVE",
"533 412 OFFCURVE",
"533 345 CURVE SMOOTH",
"533 167 LINE SMOOTH",
"533 131 OFFCURVE",
"533 82 OFFCURVE",
"598 82 CURVE SMOOTH",
"692 82 OFFCURVE",
"762 183 OFFCURVE",
"762 318 CURVE SMOOTH",
"762 505 OFFCURVE",
"624 632 OFFCURVE",
"442 632 CURVE SMOOTH",
"252 632 OFFCURVE",
"90 494 OFFCURVE",
"90 272 CURVE SMOOTH",
"90 61 OFFCURVE",
"236 -76 OFFCURVE",
"451 -76 CURVE SMOOTH",
"526 -76 OFFCURVE",
"581 -59 OFFCURVE",
"627 -35 CURVE"
);
},
{
closed = 0;
nodes = (
"533 171 LINE SMOOTH",
"495 121 OFFCURVE",
"448 82 OFFCURVE",
"387 82 CURVE SMOOTH",
"322 82 OFFCURVE",
"292 128 OFFCURVE",
"292 182 CURVE SMOOTH",
"292 260 OFFCURVE",
"353 296 OFFCURVE",
"491 296 CURVE SMOOTH",
"491 296 OFFCURVE",
"533 296 OFFCURVE",
"533 296 CURVE"
);
}
);
width = 852;
}
);
leftKerningGroup = O;
leftMetricsKey = O;
rightKerningGroup = O;
rightMetricsKey = O;
unicode = 0040;
},
{
glyphname = ampersand;
layers = (
{
background = {
paths = (
{
closed = 0;
nodes = (
"605 0 LINE",
"291 344 LINE SMOOTH",
"256 383 OFFCURVE",
"162 464 OFFCURVE",
"162 549 CURVE SMOOTH",
"162 618 OFFCURVE",
"225 680 OFFCURVE",
"311 680 CURVE SMOOTH",
"398 680 OFFCURVE",
"452 615 OFFCURVE",
"452 543 CURVE SMOOTH",
"452 359 OFFCURVE",
"100 369 OFFCURVE",
"100 164 CURVE SMOOTH",
"100 68 OFFCURVE",
"177 0 OFFCURVE",
"291 0 CURVE SMOOTH",
"475 0 OFFCURVE",
"591 176 OFFCURVE",
"591 361 CURVE"
);
}
);
};
layerId = master01;
paths = (
{
closed = 0;
nodes = (
"605 0 LINE",
"291 344 LINE SMOOTH",
"256 383 OFFCURVE",
"162 464 OFFCURVE",
"162 549 CURVE SMOOTH",
"162 618 OFFCURVE",
"225 680 OFFCURVE",
"311 680 CURVE SMOOTH",
"398 680 OFFCURVE",
"452 615 OFFCURVE",
"452 543 CURVE SMOOTH",
"452 359 OFFCURVE",
"100 369 OFFCURVE",
"100 164 CURVE SMOOTH",
"100 68 OFFCURVE",
"177 0 OFFCURVE",
"291 0 CURVE SMOOTH",
"475 0 OFFCURVE",
"591 176 OFFCURVE",
"591 361 CURVE"
);
}
);
width = 685;
}
);
leftKerningGroup = ampersand;
rightKerningGroup = ampersand;
unicode = 0026;
},
{
glyphname = paragraph;
layers = (
{
guideLines = (
{
position = "{-2, 262}";
}
);
layerId = master01;
paths = (
{
closed = 0;
nodes = (
"442 -118 LINE",
"442 680 LINE",
"283 680 LINE SMOOTH",
"137 680 OFFCURVE",
"60 603 OFFCURVE",
"60 492 CURVE SMOOTH",
"60 372 OFFCURVE",
"149 294 OFFCURVE",
"267 294 CURVE"
);
},
{
closed = 0;
nodes = (
"319 -118 LINE",
"319 636 LINE"
);
}
);
width = 582;
}
);
leftKerningGroup = paragraph;
rightKerningGroup = H;
rightMetricsKey = H;
unicode = 00B6;
},
{
glyphname = section;
layers = (
{
layerId = master01;
paths = (
{
closed = 0;
nodes = (
"110 -4 LINE SMOOTH",
"130 -65 OFFCURVE",
"195 -125 OFFCURVE",
"284 -125 CURVE SMOOTH",
"372 -125 OFFCURVE",
"439 -66 OFFCURVE",
"439 10 CURVE SMOOTH",
"439 175 OFFCURVE",
"125 148 OFFCURVE",
"125 294 CURVE SMOOTH",
"125 358 OFFCURVE",
"187 406 OFFCURVE",
"270 423 CURVE"
);
},
{
closed = 0;
nodes = (
"323 143 LINE SMOOTH",
"374 165 OFFCURVE",
"442 203 OFFCURVE",
"442 271 CURVE SMOOTH",
"442 417 OFFCURVE",
"135 409 OFFCURVE",
"135 558 CURVE SMOOTH",
"135 618 OFFCURVE",
"185 680 OFFCURVE",
"283 680 CURVE SMOOTH",
"350 680 OFFCURVE",
"399 651 OFFCURVE",
"428 595 CURVE"
);
}
);
width = 552;
}
);
leftKerningGroup = section;
rightKerningGroup = section;
unicode = 00A7;
},
{
glyphname = copyright;
layers = (
{
components = (
{
name = C;
transform = "{0.62, 0, 0, 0.57, 210, 146}";
}
);
layerId = master01;
paths = (
{
closed = 0;
nodes = (
"430 680 LINE SMOOTH",
"243 680 OFFCURVE",
"95 528 OFFCURVE",
"95 340 CURVE SMOOTH",
"95 153 OFFCURVE",
"243 0 OFFCURVE",
"431 0 CURVE SMOOTH",
"617 0 OFFCURVE",
"767 153 OFFCURVE",
"767 340 CURVE SMOOTH",
"767 528 OFFCURVE",
"617 680 OFFCURVE",
"432 680 CURVE"
);
}
);
width = 862;
},
{
associatedMasterId = master01;
background = {
paths = (
{
closed = 0;
nodes = (
"427 680 LINE",
"612 680 OFFCURVE",
"762 528 OFFCURVE",
"762 340 CURVE SMOOTH",
"762 153 OFFCURVE",
"612 0 OFFCURVE",
"426 0 CURVE SMOOTH",
"238 0 OFFCURVE",
"90 153 OFFCURVE",
"90 340 CURVE SMOOTH",
"90 528 OFFCURVE",
"238 680 OFFCURVE",
"425 680 CURVE"
);
},
{
closed = 0;
nodes = (
"582 426 LINE",
"570 479 OFFCURVE",
"523 532 OFFCURVE",
"438 532 CURVE SMOOTH",
"347 532 OFFCURVE",
"261 470 OFFCURVE",
"261 340 CURVE SMOOTH",
"261 223 OFFCURVE",
"342 148 OFFCURVE",
"438 148 CURVE SMOOTH",
"525 148 OFFCURVE",
"571 208 OFFCURVE",
"582 260 CURVE SMOOTH"
);
}
);
};
layerId = "84267277-F79A-414F-855A-7E24AA4BAE69";
name = "Jun 2 21, 11:39";
paths = (
{
closed = 0;
nodes = (
"425 680 LINE",
"238 680 OFFCURVE",
"90 528 OFFCURVE",
"90 340 CURVE SMOOTH",
"90 153 OFFCURVE",
"238 0 OFFCURVE",
"426 0 CURVE SMOOTH",
"612 0 OFFCURVE",
"762 153 OFFCURVE",
"762 340 CURVE SMOOTH",
"762 528 OFFCURVE",
"612 680 OFFCURVE",
"427 680 CURVE"
);
},
{
closed = 0;
nodes = (
"582 260 LINE SMOOTH",
"571 208 OFFCURVE",
"525 148 OFFCURVE",
"438 148 CURVE SMOOTH",
"342 148 OFFCURVE",
"261 223 OFFCURVE",
"261 340 CURVE SMOOTH",
"261 470 OFFCURVE",
"347 532 OFFCURVE",
"438 532 CURVE SMOOTH",
"523 532 OFFCURVE",
"570 479 OFFCURVE",
"582 426 CURVE"
);
}
);
width = 852;
}
);
leftKerningGroup = O;
leftMetricsKey = O;
rightKerningGroup = O;
rightMetricsKey = O;
unicode = 00A9;
},
{
glyphname = registered;
layers = (
{
components = (
{
name = R;
transform = "{0.62, 0, 0, 0.57, 247, 146}";
}
);
layerId = master01;
paths = (
{
closed = 0;
nodes = (
"432 680 LINE",
"243 680 OFFCURVE",
"95 528 OFFCURVE",
"95 340 CURVE SMOOTH",
"95 153 OFFCURVE",
"243 0 OFFCURVE",
"431 0 CURVE SMOOTH",
"617 0 OFFCURVE",
"767 153 OFFCURVE",
"767 340 CURVE SMOOTH",
"767 528 OFFCURVE",
"617 680 OFFCURVE",
"430 680 CURVE"
);
}
);
width = 862;
},
{
associatedMasterId = master01;
background = {
paths = (
{
closed = 0;
nodes = (
"425 680 LINE",
"612 680 OFFCURVE",
"762 528 OFFCURVE",
"762 340 CURVE SMOOTH",
"762 153 OFFCURVE",
"612 0 OFFCURVE",
"426 0 CURVE SMOOTH",
"238 0 OFFCURVE",
"90 153 OFFCURVE",
"90 340 CURVE SMOOTH",
"90 528 OFFCURVE",
"238 680 OFFCURVE",
"427 680 CURVE"
);
},
{
closed = 0;
nodes = (
"442 339 LINE",
"573 152 LINE"
);
},
{
closed = 0;
nodes = (
"323 152 LINE",
"323 531 LINE",
"429 531 LINE SMOOTH",
"519 531 OFFCURVE",
"559 501 OFFCURVE",
"559 431 CURVE SMOOTH",
"559 374 OFFCURVE",
"521 339 OFFCURVE",
"431 339 CURVE SMOOTH",
"323 339 LINE"
);
}
);
};
layerId = "FB6D3895-0255-4D5B-A2EF-BF8758F90971";
name = "Jun 2 21, 11:39";
paths = (
{
closed = 0;
nodes = (
"427 680 LINE",
"238 680 OFFCURVE",
"90 528 OFFCURVE",
"90 340 CURVE SMOOTH",
"90 153 OFFCURVE",
"238 0 OFFCURVE",
"426 0 CURVE SMOOTH",
"612 0 OFFCURVE",
"762 153 OFFCURVE",
"762 340 CURVE SMOOTH",
"762 528 OFFCURVE",
"612 680 OFFCURVE",
"425 680 CURVE"
);
},
{
closed = 0;
nodes = (
"442 339 LINE",
"573 152 LINE"
);
},
{
closed = 0;
nodes = (
"323 339 LINE",
"431 339 LINE SMOOTH",
"521 339 OFFCURVE",
"559 374 OFFCURVE",
"559 431 CURVE SMOOTH",
"559 501 OFFCURVE",
"519 531 OFFCURVE",
"429 531 CURVE SMOOTH",
"323 531 LINE",
"323 152 LINE"
);
}
);
width = 852;
}
);
leftKerningGroup = O;
leftMetricsKey = O;
rightKerningGroup = O;
rightMetricsKey = O;
unicode = 00AE;
},
{
glyphname = trademark;
layers = (
{
background = {
paths = (
{
closed = 0;
nodes = (
"773 317 LINE",
"773 680 LINE",
"770 680 LINE",
"597 333 LINE",
"594 333 LINE",
"421 680 LINE",
"418 680 LINE",
"418 317 LINE"
);
},
{
closed = 0;
nodes = (
"177 317 LINE",
"177 672 LINE"
);
},
{
closed = 0;
nodes = (
"40 672 LINE",
"314 672 LINE"
);
}
);
};
layerId = master01;
paths = (
{
closed = 0;
nodes = (
"773 317 LINE",
"773 680 LINE",
"770 680 LINE",
"597 333 LINE",
"594 333 LINE",
"421 680 LINE",
"418 680 LINE",
"418 317 LINE"
);
},
{
closed = 0;
nodes = (
"177 317 LINE",
"177 672 LINE"
);
},
{
closed = 0;
nodes = (
"40 672 LINE",
"314 672 LINE"
);
}
);
width = 873;
}
);
leftKerningGroup = trademark;
rightKerningGroup = trademark;
unicode = 2122;
},
{
glyphname = degree;
layers = (
{
layerId = master01;
paths = (
{
closed = 0;
nodes = (
"153 680 LINE",
"91 680 OFFCURVE",
"40 628 OFFCURVE",
"40 565 CURVE SMOOTH",
"40 502 OFFCURVE",
"92 451 OFFCURVE",
"154 451 CURVE SMOOTH",
"217 451 OFFCURVE",
"269 502 OFFCURVE",
"269 565 CURVE SMOOTH",
"269 628 OFFCURVE",
"218 680 OFFCURVE",
"155 680 CURVE"
);
}
);
width = 309;
}
);
leftKerningGroup = degree;
rightKerningGroup = degree;
unicode = 00B0;
},
{
glyphname = minute;
layers = (
{
layerId = master01;
paths = (
{
closed = 0;
nodes = (
"71 540 LINE",
"71 745 LINE",
"70 745 LINE"
);
}
);
width = 141;
}
);
leftKerningGroup = minute;
rightKerningGroup = minute;
unicode = 2032;
},
{
glyphname = bar;
layers = (
{
background = {
paths = (
{
closed = 0;
nodes = (
"140 -188 LINE",
"140 745 LINE",
"138 745 LINE"
);
}
);
};
layerId = master01;
paths = (
{
closed = 0;
nodes = (
"140 -190 LINE",
"140 745 LINE"
);
}
);
width = 280;
},
{
associatedMasterId = master01;
background = {
paths = (
{
closed = 0;
nodes = (
"141 -188 LINE",
"141 745 LINE",
"139 745 LINE"
);
}
);
};
layerId = "C674C7DC-7D9A-4D3D-8D92-5AAEEC1DB6AD";
name = "Sep 10 21, 11:39";
paths = (
{
closed = 0;
nodes = (
"141 -188 LINE",
"141 745 LINE",
"140 746 LINE"
);
}
);
width = 281;
}
);
leftKerningGroup = bar;
leftMetricsKey = H;
rightKerningGroup = bar;
rightMetricsKey = H;
unicode = 007C;
},
{
glyphname = brokenbar;
layers = (
{
background = {
paths = (
{
closed = 0;
nodes = (
"140 427 LINE",
"140 745 LINE",
"139 746 LINE"
);
},
{
closed = 0;
nodes = (
"140 -188 LINE",
"140 130 LINE"
);
}
);
};
layerId = master01;
paths = (
{
closed = 0;
nodes = (
"140 427 LINE",
"140 745 LINE"
);
},
{
closed = 0;
nodes = (
"140 -190 LINE",
"140 128 LINE"
);
}
);
width = 280;
},
{
associatedMasterId = master01;
background = {
paths = (
{
closed = 0;
nodes = (
"141 427 LINE",
"141 745 LINE",
"140 746 LINE"
);
},
{
closed = 0;
nodes = (
"141 -188 LINE",
"141 130 LINE"
);
}
);
};
layerId = "8F12F87D-D0CF-4494-BF18-041D1E1F6E03";
name = "Sep 10 21, 11:40";
paths = (
{
closed = 0;
nodes = (
"141 427 LINE",
"141 745 LINE",
"140 746 LINE"
);
},
{
closed = 0;
nodes = (
"141 -188 LINE",
"141 130 LINE"
);
}
);
width = 281;
}
);
leftKerningGroup = bar;
leftMetricsKey = H;
rightKerningGroup = bar;
rightMetricsKey = H;
unicode = 00A6;
},
{
glyphname = dagger;
layers = (
{
background = {
paths = (
{
closed = 0;
nodes = (
"506 462 LINE",
"70 462 LINE"
);
},
{
closed = 0;
nodes = (
"288 -124 LINE",
"288 680 LINE"
);
}
);
};
layerId = master01;
paths = (
{
closed = 0;
nodes = (
"80 462 LINE",
"516 462 LINE"
);
},
{
closed = 0;
nodes = (
"298 -124 LINE",
"298 680 LINE"
);
}
);
width = 596;
}
);
leftKerningGroup = dagger;
rightKerningGroup = dagger;
unicode = 2020;
},
{
glyphname = literSign;
layers = (
{
background = {
paths = (
{
closed = 0;
nodes = (
"80 145 LINE",
"231 260 OFFCURVE",
"354 402 OFFCURVE",
"354 555 CURVE SMOOTH",
"354 628 OFFCURVE",
"326 680 OFFCURVE",
"265 680 CURVE SMOOTH",
"208 680 OFFCURVE",
"164 634 OFFCURVE",
"164 486 CURVE SMOOTH",
"164 182 LINE SMOOTH",
"164 65 OFFCURVE",
"203 0 OFFCURVE",
"282 0 CURVE SMOOTH",
"353 0 OFFCURVE",
"387 53 OFFCURVE",
"396 84 CURVE SMOOTH"
);
}
);
};
guideLines = (
{
position = "{210, -64}";
}
);
layerId = master01;
paths = (
{
closed = 0;
nodes = (
"80 145 LINE",
"231 260 OFFCURVE",
"354 402 OFFCURVE",
"354 555 CURVE SMOOTH",
"354 628 OFFCURVE",
"326 680 OFFCURVE",
"265 680 CURVE SMOOTH",
"208 680 OFFCURVE",
"164 634 OFFCURVE",
"164 486 CURVE SMOOTH",
"164 182 LINE SMOOTH",
"164 65 OFFCURVE",
"203 0 OFFCURVE",
"282 0 CURVE SMOOTH",
"353 0 OFFCURVE",
"387 53 OFFCURVE",
"396 84 CURVE SMOOTH"
);
}
);
width = 466;
}
);
leftKerningGroup = literSign;
rightKerningGroup = literSign;
unicode = 2113;
},
{
glyphname = daggerdbl;
layers = (
{
background = {
paths = (
{
closed = 0;
nodes = (
"100 440 LINE",
"520 440 LINE"
);
},
{
closed = 0;
nodes = (
"100 116 LINE",
"520 116 LINE"
);
},
{
closed = 0;
nodes = (
"310 -124 LINE",
"310 680 LINE"
);
}
);
};
layerId = master01;
paths = (
{
closed = 0;
nodes = (
"100 440 LINE",
"520 440 LINE"
);
},
{
closed = 0;
nodes = (
"100 116 LINE",
"520 116 LINE"
);
},
{
closed = 0;
nodes = (
"310 -124 LINE",
"310 680 LINE"
);
}
);
width = 620;
}
);
leftKerningGroup = daggerdbl;
rightKerningGroup = daggerdbl;
unicode = 2021;
},
{
glyphname = estimated;
layers = (
{
background = {
paths = (
{
closed = 0;
nodes = (
"316 356 LINE",
"874 356 LINE",
"874 515 OFFCURVE",
"758 680 OFFCURVE",
"491 680 CURVE SMOOTH",
"224 680 OFFCURVE",
"95 500 OFFCURVE",
"95 331 CURVE SMOOTH",
"95 172 OFFCURVE",
"224 0 OFFCURVE",
"491 0 CURVE SMOOTH",
"632 0 OFFCURVE",
"742 54 OFFCURVE",
"795 118 CURVE SMOOTH"
);
},
{
closed = 0;
nodes = (
"273 85 LINE",
"273 586 LINE"
);
},
{
closed = 0;
nodes = (
"711 382 LINE",
"711 586 LINE"
);
}
);
};
layerId = master01;
paths = (
{
closed = 0;
nodes = (
"316 356 LINE",
"874 356 LINE",
"874 515 OFFCURVE",
"758 680 OFFCURVE",
"491 680 CURVE SMOOTH",
"224 680 OFFCURVE",
"95 500 OFFCURVE",
"95 331 CURVE SMOOTH",
"95 172 OFFCURVE",
"224 0 OFFCURVE",
"491 0 CURVE SMOOTH",
"632 0 OFFCURVE",
"742 54 OFFCURVE",
"795 118 CURVE SMOOTH"
);
},
{
closed = 0;
nodes = (
"273 85 LINE",
"273 586 LINE"
);
},
{
closed = 0;
nodes = (
"711 382 LINE",
"711 586 LINE"
);
}
);
width = 969;
}
);
leftKerningGroup = O;
leftMetricsKey = O;
rightKerningGroup = O;
rightMetricsKey = O;
unicode = 212E;
},
{
glyphname = cent;
layers = (
{
components = (
{
name = c;
}
);
layerId = master01;
paths = (
{
closed = 0;
nodes = (
"293 555 LINE",
"293 693 LINE"
);
},
{
closed = 0;
nodes = (
"293 -138 LINE",
"293 0 LINE"
);
}
);
width = 531;
}
);
leftKerningGroup = o;
leftMetricsKey = c;
rightKerningGroup = o;
rightMetricsKey = c;
unicode = 00A2;
},
{
glyphname = currency;
layers = (
{
background = {
paths = (
{
closed = 0;
nodes = (
"319 541 LINE",
"208 541 OFFCURVE",
"120 452 OFFCURVE",
"120 341 CURVE SMOOTH",
"120 229 OFFCURVE",
"209 140 OFFCURVE",
"320 140 CURVE SMOOTH",
"430 140 OFFCURVE",
"520 229 OFFCURVE",
"520 341 CURVE SMOOTH",
"520 452 OFFCURVE",
"431 541 OFFCURVE",
"321 541 CURVE"
);
},
{
closed = 0;
nodes = (
"92 112 LINE",
"178 199 LINE"
);
},
{
closed = 0;
nodes = (
"177 482 LINE",
"90 569 LINE"
);
},
{
closed = 0;
nodes = (
"549 112 LINE",
"460 198 LINE"
);
},
{
closed = 0;
nodes = (
"461 482 LINE",
"550 569 LINE"
);
}
);
};
guideLines = (
{
position = "{225, -64}";
},
{
position = "{48, 293}";
},
{
position = "{48, 449}";
}
);
layerId = master01;
paths = (
{
closed = 0;
nodes = (
"329 541 LINE",
"218 541 OFFCURVE",
"130 452 OFFCURVE",
"130 341 CURVE SMOOTH",
"130 229 OFFCURVE",
"219 140 OFFCURVE",
"330 140 CURVE SMOOTH",
"440 140 OFFCURVE",
"530 229 OFFCURVE",
"530 341 CURVE SMOOTH",
"530 452 OFFCURVE",
"441 541 OFFCURVE",
"331 541 CURVE"
);
},
{
closed = 0;
nodes = (
"102 112 LINE",
"188 199 LINE"
);
},
{
closed = 0;
nodes = (
"187 482 LINE",
"100 569 LINE"
);
},
{
closed = 0;
nodes = (
"559 112 LINE",
"470 198 LINE"
);
},
{
closed = 0;
nodes = (
"471 482 LINE",
"560 569 LINE"
);
}
);
width = 660;
}
);
leftKerningGroup = currency;
rightKerningGroup = currency;
unicode = 00A4;
},
{
glyphname = dollar;
layers = (
{
background = {
paths = (
{
closed = 0;
nodes = (
"293 -128 LINE",
"293 808 LINE"
);
}
);
};
components = (
{
name = S;
}
);
layerId = master01;
paths = (
{
closed = 0;
nodes = (
"293 680 LINE",
"293 818 LINE"
);
},
{
closed = 0;
nodes = (
"293 -138 LINE",
"293 0 LINE"
);
}
);
width = 566;
},
{
associatedMasterId = master01;
components = (
{
name = S;
}
);
layerId = "B0CE3318-0906-48D1-AC54-9BEF0910E3FA";
name = "Sep 18 21, 16:53";
paths = (
{
closed = 0;
nodes = (
"293 -128 LINE",
"293 808 LINE"
);
}
);
width = 566;
}
);
leftKerningGroup = O;
leftMetricsKey = O;
rightKerningGroup = O;
rightMetricsKey = "=O-5";
unicode = 0024;
},
{
glyphname = euro;
layers = (
{
background = {
paths = (
{
closed = 0;
nodes = (
"582 42 LINE",
"535 11 OFFCURVE",
"486 0 OFFCURVE",
"432 0 CURVE SMOOTH",
"240 0 OFFCURVE",
"167 144 OFFCURVE",
"167 341 CURVE SMOOTH",
"167 571 OFFCURVE",
"266 680 OFFCURVE",
"429 680 CURVE SMOOTH",
"485 680 OFFCURVE",
"535 667 OFFCURVE",
"573 641 CURVE"
);
},
{
closed = 0;
nodes = (
"60 287 LINE",
"489 287 LINE"
);
},
{
closed = 0;
nodes = (
"61 425 LINE",
"489 425 LINE"
);
}
);
};
guideLines = (
{
position = "{8, 632}";
}
);
layerId = master01;
paths = (
{
closed = 0;
nodes = (
"582 42 LINE",
"535 11 OFFCURVE",
"486 0 OFFCURVE",
"432 0 CURVE SMOOTH",
"240 0 OFFCURVE",
"167 144 OFFCURVE",
"167 341 CURVE SMOOTH",
"167 571 OFFCURVE",
"266 680 OFFCURVE",
"427 680 CURVE SMOOTH",
"485 680 OFFCURVE",
"537 666 OFFCURVE",
"577 631 CURVE"
);
},
{
closed = 0;
nodes = (
"60 287 LINE",
"489 287 LINE"
);
},
{
closed = 0;
nodes = (
"61 425 LINE",
"489 425 LINE"
);
}
);
width = 652;
}
);
leftKerningGroup = euro;
rightKerningGroup = euro;
unicode = 20AC;
},
{
glyphname = sterling;
layers = (
{
background = {
paths = (
{
closed = 0;
nodes = (
"202 0 LINE",
"202 511 LINE SMOOTH",
"202 613 OFFCURVE",
"256 680 OFFCURVE",
"359 680 CURVE SMOOTH",
"423 680 OFFCURVE",
"464 654 OFFCURVE",
"487 606 CURVE SMOOTH"
);
},
{
closed = 0;
nodes = (
"100 0 LINE",
"492 0 LINE"
);
},
{
closed = 0;
nodes = (
"110 350 LINE",
"381 350 LINE"
);
}
);
};
layerId = master01;
paths = (
{
closed = 0;
nodes = (
"202 0 LINE",
"202 511 LINE SMOOTH",
"202 613 OFFCURVE",
"256 680 OFFCURVE",
"359 680 CURVE SMOOTH",
"423 680 OFFCURVE",
"464 654 OFFCURVE",
"487 606 CURVE SMOOTH"
);
},
{
closed = 0;
nodes = (
"100 0 LINE",
"492 0 LINE"
);
},
{
closed = 0;
nodes = (
"110 350 LINE",
"381 350 LINE"
);
}
);
width = 562;
}
);
leftKerningGroup = sterling;
rightKerningGroup = sterling;
unicode = 00A3;
},
{
glyphname = yen;
layers = (
{
background = {
paths = (
{
closed = 0;
nodes = (
"70 680 LINE",
"282 314 LINE",
"494 680 LINE"
);
},
{
closed = 0;
nodes = (
"282 0 LINE",
"282 314 LINE"
);
},
{
closed = 0;
nodes = (
"116 163 LINE",
"448 163 LINE"
);
},
{
closed = 0;
nodes = (
"116 314 LINE",
"448 314 LINE"
);
}
);
};
layerId = master01;
paths = (
{
closed = 0;
nodes = (
"70 680 LINE",
"282 314 LINE",
"494 680 LINE"
);
},
{
closed = 0;
nodes = (
"282 0 LINE",
"282 314 LINE"
);
},
{
closed = 0;
nodes = (
"116 163 LINE",
"448 163 LINE"
);
},
{
closed = 0;
nodes = (
"116 314 LINE",
"448 314 LINE"
);
}
);
width = 564;
}
);
leftKerningGroup = Y;
rightKerningGroup = Y;
unicode = 00A5;
},
{
glyphname = bulletoperator;
layers = (
{
layerId = master01;
paths = (
{
closed = 0;
nodes = (
"159 356 LINE SMOOTH",
"132 356 OFFCURVE",
"110 334 OFFCURVE",
"110 306 CURVE SMOOTH",
"110 278 OFFCURVE",
"132 256 OFFCURVE",
"160 256 CURVE SMOOTH",
"188 256 OFFCURVE",
"210 278 OFFCURVE",
"210 306 CURVE SMOOTH",
"210 334 OFFCURVE",
"188 356 OFFCURVE",
"161 356 CURVE"
);
}
);
width = 320;
}
);
leftKerningGroup = periodcentered;
leftMetricsKey = period;
rightKerningGroup = periodcentered;
rightMetricsKey = period;
unicode = 2219;
},
{
glyphname = plus;
layers = (
{
layerId = master01;
paths = (
{
closed = 0;
nodes = (
"85 332 LINE",
"550 332 LINE"
);
},
{
closed = 0;
nodes = (
"316 95 LINE",
"316 560 LINE"
);
}
);
width = 635;
}
);
leftKerningGroup = plus;
leftMetricsKey = minus;
rightKerningGroup = plus;
rightMetricsKey = minus;
unicode = 002B;
},
{
glyphname = minus;
layers = (
{
layerId = master01;
paths = (
{
closed = 0;
nodes = (
"85 332 LINE",
"550 332 LINE"
);
}
);
width = 635;
},
{
associatedMasterId = master01;
layerId = "F75B882F-4421-4857-938A-AE06B139DE72";
name = "Sep 10 21, 11:39";
paths = (
{
closed = 0;
nodes = (
"550 332 LINE",
"85 332 LINE",
"85 333 LINE"
);
}
);
width = 635;
}
);
leftKerningGroup = minus;
rightKerningGroup = minus;
unicode = 2212;
},
{
glyphname = multiply;
layers = (
{
background = {
paths = (
{
closed = 0;
nodes = (
"80 133 LINE",
"460 533 LINE"
);
},
{
closed = 0;
nodes = (
"460 132 LINE",
"80 532 LINE"
);
}
);
};
layerId = master01;
paths = (
{
closed = 0;
nodes = (
"80 133 LINE",
"460 533 LINE"
);
},
{
closed = 0;
nodes = (
"460 132 LINE",
"80 532 LINE"
);
}
);
width = 540;
}
);
leftKerningGroup = multiply;
rightKerningGroup = multiply;
unicode = 00D7;
},
{
glyphname = equal;
layers = (
{
layerId = master01;
paths = (
{
closed = 0;
nodes = (
"454 422 LINE",
"100 422 LINE",
"100 423 LINE"
);
},
{
closed = 0;
nodes = (
"454 222 LINE",
"100 222 LINE",
"100 223 LINE"
);
}
);
width = 554;
}
);
leftKerningGroup = equal;
rightKerningGroup = equal;
unicode = 003D;
},
{
glyphname = notequal;
layers = (
{
background = {
paths = (
{
closed = 0;
nodes = (
"180 105 LINE",
"374 540 LINE"
);
}
);
};
layerId = master01;
paths = (
{
closed = 0;
nodes = (
"190 105 LINE",
"384 540 LINE"
);
},
{
closed = 0;
nodes = (
"474 222 LINE",
"100 222 LINE",
"100 223 LINE"
);
},
{
closed = 0;
nodes = (
"474 422 LINE",
"100 422 LINE",
"100 423 LINE"
);
}
);
width = 574;
}
);
leftKerningGroup = equal;
leftMetricsKey = equal;
rightKerningGroup = equal;
rightMetricsKey = equal;
unicode = 2260;
},
{
glyphname = greater;
layers = (
{
background = {
paths = (
{
closed = 1;
nodes = (
"47 514 LINE",
"47 456 LINE",
"488 253 LINE",
"47 50 LINE",
"47 -8 LINE",
"553 225 LINE",
"553 281 LINE"
);
}
);
};
layerId = master01;
paths = (
{
closed = 0;
nodes = (
"100 50 LINE",
"552 284 LINE",
"552 288 LINE",
"100 522 LINE"
);
}
);
width = 652;
}
);
leftKerningGroup = greater;
rightKerningGroup = greater;
unicode = 003E;
},
{
glyphname = less;
layers = (
{
background = {
paths = (
{
closed = 1;
nodes = (
"553 -8 LINE",
"553 50 LINE",
"112 253 LINE",
"553 456 LINE",
"553 514 LINE",
"47 281 LINE",
"47 225 LINE"
);
}
);
};
components = (
{
name = greater;
transform = "{-1, 0, 0, 1, 652, 0}";
}
);
layerId = master01;
width = 652;
}
);
leftKerningGroup = less;
rightKerningGroup = less;
unicode = 003C;
},
{
glyphname = greaterequal;
layers = (
{
background = {
paths = (
{
closed = 1;
nodes = (
"65 538 LINE",
"449 347 LINE",
"449 345 LINE",
"65 154 LINE",
"65 104 LINE",
"495 325 LINE",
"495 367 LINE",
"65 588 LINE"
);
},
{
closed = 1;
nodes = (
"496 63 LINE",
"59 63 LINE",
"59 21 LINE",
"496 21 LINE"
);
}
);
};
components = (
{
name = greater;
transform = "{0.88, 0, 0, 0.8, 22, 102}";
}
);
layerId = master01;
paths = (
{
closed = 0;
nodes = (
"111 0 LINE",
"507 0 LINE"
);
}
);
width = 618;
}
);
leftKerningGroup = greaterequal;
rightKerningGroup = greaterequal;
unicode = 2265;
},
{
glyphname = plusminus;
layers = (
{
components = (
{
name = plus;
transform = "{1, 0, 0, 0.8, 15, 76}";
}
);
layerId = master01;
paths = (
{
closed = 0;
nodes = (
"100 0 LINE",
"565 0 LINE"
);
}
);
width = 665;
}
);
leftKerningGroup = plusminus;
rightKerningGroup = plusminus;
unicode = 00B1;
},
{
glyphname = asciitilde;
layers = (
{
layerId = master01;
paths = (
{
closed = 0;
nodes = (
"100 284 LINE",
"136 340 OFFCURVE",
"179 356 OFFCURVE",
"219 356 CURVE SMOOTH",
"294 356 OFFCURVE",
"342 284 OFFCURVE",
"427 284 CURVE SMOOTH",
"467 284 OFFCURVE",
"509 298 OFFCURVE",
"545 354 CURVE SMOOTH"
);
}
);
width = 645;
}
);
leftKerningGroup = asciitilde;
rightKerningGroup = asciitilde;
unicode = 007E;
},
{
glyphname = logicalnot;
layers = (
{
layerId = master01;
paths = (
{
closed = 0;
nodes = (
"564 140 LINE",
"564 365 LINE",
"100 365 LINE"
);
}
);
width = 664;
}
);
leftKerningGroup = logicalnot;
rightKerningGroup = logicalnot;
unicode = 00AC;
},
{
glyphname = asciicircum;
layers = (
{
layerId = master01;
paths = (
{
closed = 0;
nodes = (
"378 361 LINE",
"221 680 LINE",
"217 680 LINE",
"60 361 LINE"
);
}
);
width = 438;
}
);
leftKerningGroup = asciicircum;
rightKerningGroup = asciicircum;
unicode = 005E;
},
{
glyphname = infinity;
layers = (
{
layerId = master01;
paths = (
{
closed = 0;
nodes = (
"770 274 LINE",
"770 201 OFFCURVE",
"724 135 OFFCURVE",
"636 135 CURVE SMOOTH",
"477 135 OFFCURVE",
"392 416 OFFCURVE",
"232 416 CURVE SMOOTH",
"145 416 OFFCURVE",
"100 349 OFFCURVE",
"100 277 CURVE SMOOTH",
"100 205 OFFCURVE",
"144 135 OFFCURVE",
"232 135 CURVE SMOOTH",
"391 135 OFFCURVE",
"477 416 OFFCURVE",
"636 416 CURVE SMOOTH",
"724 416 OFFCURVE",
"770 348 OFFCURVE",
"770 276 CURVE"
);
}
);
width = 870;
}
);
leftKerningGroup = infinity;
rightKerningGroup = infinity;
unicode = 221E;
},
{
glyphname = integral;
layers = (
{
background = {
paths = (
{
closed = 0;
nodes = (
"50 -89 LINE",
"62 -98 OFFCURVE",
"81 -104 OFFCURVE",
"101 -104 CURVE SMOOTH",
"167 -104 OFFCURVE",
"200 -60 OFFCURVE",
"200 50 CURVE SMOOTH",
"200 590 LINE SMOOTH",
"200 700 OFFCURVE",
"233 743 OFFCURVE",
"299 745 CURVE SMOOTH",
"320 746 OFFCURVE",
"339 738 OFFCURVE",
"350 730 CURVE"
);
}
);
};
layerId = master01;
paths = (
{
closed = 0;
nodes = (
"60 -89 LINE",
"72 -98 OFFCURVE",
"91 -104 OFFCURVE",
"111 -104 CURVE SMOOTH",
"177 -104 OFFCURVE",
"210 -60 OFFCURVE",
"210 50 CURVE SMOOTH",
"210 590 LINE SMOOTH",
"210 700 OFFCURVE",
"243 743 OFFCURVE",
"309 745 CURVE SMOOTH",
"330 746 OFFCURVE",
"349 738 OFFCURVE",
"360 730 CURVE"
);
}
);
width = 420;
}
);
leftKerningGroup = integral;
rightKerningGroup = integral;
unicode = 222B;
},
{
glyphname = product;
layers = (
{
background = {
paths = (
{
closed = 0;
nodes = (
"60 670 LINE",
"648 670 LINE"
);
},
{
closed = 0;
nodes = (
"204 -98 LINE",
"204 670 LINE"
);
},
{
closed = 0;
nodes = (
"504 -98 LINE",
"504 670 LINE"
);
}
);
};
layerId = master01;
paths = (
{
closed = 0;
nodes = (
"70 670 LINE",
"658 670 LINE"
);
},
{
closed = 0;
nodes = (
"214 -98 LINE",
"214 670 LINE"
);
},
{
closed = 0;
nodes = (
"514 -98 LINE",
"514 670 LINE"
);
}
);
width = 728;
}
);
leftKerningGroup = product;
rightKerningGroup = product;
unicode = 220F;
},
{
glyphname = summation;
layers = (
{
background = {
paths = (
{
closed = 0;
nodes = (
"464 670 LINE",
"68 670 LINE",
"68 666 LINE",
"321 290 LINE",
"50 -89 LINE",
"50 -93 LINE",
"481 -93 LINE"
);
}
);
};
layerId = master01;
paths = (
{
closed = 0;
nodes = (
"491 -93 LINE",
"60 -93 LINE",
"60 -89 LINE",
"331 290 LINE",
"78 666 LINE",
"78 670 LINE",
"474 670 LINE"
);
}
);
width = 531;
}
);
leftKerningGroup = summation;
rightKerningGroup = summation;
unicode = 2211;
},
{
glyphname = radical;
layers = (
{
background = {
paths = (
{
closed = 0;
nodes = (
"50 378 LINE",
"213 -80 LINE",
"217 -80 LINE",
"441 745 LINE",
"624 745 LINE"
);
}
);
};
layerId = master01;
paths = (
{
closed = 0;
nodes = (
"60 378 LINE",
"223 -80 LINE",
"227 -80 LINE",
"451 745 LINE",
"634 745 LINE"
);
}
);
width = 624;
}
);
leftKerningGroup = radical;
rightKerningGroup = radical;
unicode = 221A;
},
{
glyphname = micro;
layers = (
{
background = {
paths = (
{
closed = 1;
nodes = (
"150 -188 LINE",
"150 58 LINE",
"152 58 LINE",
"173 25 OFFCURVE",
"203 -12 OFFCURVE",
"284 -12 CURVE SMOOTH",
"355 -12 OFFCURVE",
"398 18 OFFCURVE",
"438 90 CURVE",
"440 90 LINE",
"440 0 LINE",
"498 0 LINE",
"498 587 LINE",
"440 587 LINE",
"440 173 LINE",
"420 120 OFFCURVE",
"372 44 OFFCURVE",
"288 44 CURVE SMOOTH",
"223 44 OFFCURVE",
"150 79 OFFCURVE",
"150 173 CURVE SMOOTH",
"150 587 LINE",
"92 587 LINE",
"92 -188 LINE"
);
}
);
};
components = (
{
name = u;
transform = "{1, 0, 0, 1, 5, 0}";
}
);
layerId = master01;
paths = (
{
closed = 0;
nodes = (
"140 -188 LINE",
"140 135 LINE"
);
}
);
width = 608;
}
);
leftKerningGroup = n;
rightKerningGroup = n;
rightMetricsKey = "=|n";
unicode = 00B5;
},
{
glyphname = partialdiff;
layers = (
{
background = {
paths = (
{
closed = 0;
nodes = (
"434 294 LINE SMOOTH",
"411 371 OFFCURVE",
"346 437 OFFCURVE",
"265 437 CURVE SMOOTH",
"152 437 OFFCURVE",
"90 313 OFFCURVE",
"90 197 CURVE SMOOTH",
"90 93 OFFCURVE",
"134 0 OFFCURVE",
"239 0 CURVE SMOOTH",
"416 0 OFFCURVE",
"444 306 OFFCURVE",
"444 387 CURVE SMOOTH",
"444 496 OFFCURVE",
"421 745 OFFCURVE",
"240 745 CURVE SMOOTH",
"200 745 OFFCURVE",
"151 729 OFFCURVE",
"122 706 CURVE"
);
}
);
};
layerId = master01;
paths = (
{
closed = 0;
nodes = (
"444 294 LINE SMOOTH",
"421 371 OFFCURVE",
"356 437 OFFCURVE",
"275 437 CURVE SMOOTH",
"162 437 OFFCURVE",
"100 313 OFFCURVE",
"100 194 CURVE SMOOTH",
"100 93 OFFCURVE",
"145 0 OFFCURVE",
"247 0 CURVE SMOOTH",
"426 0 OFFCURVE",
"454 290 OFFCURVE",
"454 395 CURVE SMOOTH",
"454 497 OFFCURVE",
"428 745 OFFCURVE",
"253 745 CURVE SMOOTH",
"209 745 OFFCURVE",
"161 729 OFFCURVE",
"132 706 CURVE"
);
}
);
width = 564;
}
);
leftKerningGroup = partialdiff;
rightKerningGroup = partialdiff;
unicode = 2202;
},
{
glyphname = rightArrow;
layers = (
{
layerId = master01;
paths = (
{
closed = 0;
nodes = (
"525 33 LINE",
"809 339 LINE",
"525 645 LINE"
);
},
{
closed = 0;
nodes = (
"807 339 LINE",
"110 339 LINE"
);
}
);
width = 919;
}
);
unicode = 2192;
},
{
glyphname = leftRightArrow;
layers = (
{
guideLines = (
{
position = "{68, 605}";
}
);
layerId = master01;
paths = (
{
closed = 0;
nodes = (
"825 41 LINE",
"1069 347 LINE",
"825 653 LINE"
);
},
{
closed = 0;
nodes = (
"354 41 LINE",
"110 347 LINE",
"354 653 LINE"
);
},
{
closed = 0;
nodes = (
"1067 347 LINE",
"110 347 LINE"
);
}
);
width = 1179;
}
);
unicode = 2194;
},
{
glyphname = upDownArrow;
layers = (
{
layerId = master01;
paths = (
{
closed = 0;
nodes = (
"703 501 LINE",
"397 745 LINE",
"90 501 LINE"
);
},
{
closed = 0;
nodes = (
"90 30 LINE",
"397 -214 LINE",
"703 30 LINE"
);
},
{
closed = 0;
nodes = (
"397 -212 LINE",
"397 745 LINE"
);
}
);
width = 793;
}
);
unicode = 2195;
},
{
glyphname = clockwiseGappedCircleArrow;
layers = (
{
background = {
paths = (
{
closed = 1;
nodes = (
"628 0 OFFCURVE",
"780 152 OFFCURVE",
"780 340 CURVE SMOOTH",
"780 528 OFFCURVE",
"628 680 OFFCURVE",
"440 680 CURVE SMOOTH",
"252 680 OFFCURVE",
"100 528 OFFCURVE",
"100 340 CURVE SMOOTH",
"100 152 OFFCURVE",
"252 0 OFFCURVE",
"440 0 CURVE SMOOTH"
);
}
);
};
layerId = master01;
paths = (
{
closed = 0;
nodes = (
"741 499 LINE",
"684 607 OFFCURVE",
"571 680 OFFCURVE",
"440 680 CURVE SMOOTH",
"252 680 OFFCURVE",
"100 528 OFFCURVE",
"100 340 CURVE SMOOTH",
"100 152 OFFCURVE",
"252 0 OFFCURVE",
"440 0 CURVE SMOOTH",
"571 0 OFFCURVE",
"685 74 OFFCURVE",
"741 182 CURVE"
);
},
{
closed = 0;
nodes = (
"495 490 LINE",
"741 499 LINE",
"750 745 LINE"
);
}
);
width = 860;
}
);
leftKerningGroup = O;
rightKerningGroup = H;
unicode = 27F3;
},
{
glyphname = whiteCircle;
layers = (
{
layerId = master01;
paths = (
{
closed = 0;
nodes = (
"419 680 LINE",
"232 680 OFFCURVE",
"80 528 OFFCURVE",
"80 340 CURVE SMOOTH",
"80 152 OFFCURVE",
"232 0 OFFCURVE",
"420 0 CURVE SMOOTH",
"608 0 OFFCURVE",
"760 152 OFFCURVE",
"760 340 CURVE SMOOTH",
"760 528 OFFCURVE",
"608 680 OFFCURVE",
"421 680 CURVE"
);
}
);
width = 840;
}
);
leftKerningGroup = O;
rightKerningGroup = O;
unicode = 25CB;
},
{
glyphname = whiteDiamond;
layers = (
{
layerId = master01;
paths = (
{
closed = 0;
nodes = (
"50 339 LINE",
"390 0 LINE",
"730 340 LINE",
"390 680 LINE",
"50 340 LINE"
);
}
);
width = 780;
}
);
unicode = 25C7;
},
{
glyphname = lozenge;
layers = (
{
background = {
paths = (
{
closed = 0;
nodes = (
"100 339 LINE",
"100 331 LINE",
"283 -16 LINE",
"293 -16 LINE",
"476 331 LINE",
"476 341 LINE",
"293 696 LINE",
"283 696 LINE",
"100 341 LINE"
);
}
);
};
layerId = master01;
paths = (
{
closed = 0;
nodes = (
"100 339 LINE",
"100 331 LINE",
"283 -16 LINE",
"293 -16 LINE",
"476 331 LINE",
"476 341 LINE",
"293 696 LINE",
"283 696 LINE",
"100 341 LINE"
);
}
);
width = 576;
}
);
unicode = 25CA;
},
{
glyphname = whiteSquare;
layers = (
{
layerId = master01;
paths = (
{
closed = 0;
nodes = (
"140 668 LINE",
"140 10 LINE",
"800 10 LINE",
"800 670 LINE",
"140 670 LINE"
);
}
);
width = 940;
}
);
leftKerningGroup = H;
leftMetricsKey = H;
rightKerningGroup = H;
rightMetricsKey = H;
unicode = 25A1;
},
{
glyphname = mediumWhiteSquare;
layers = (
{
layerId = master01;
paths = (
{
closed = 0;
nodes = (
"140 543 LINE",
"140 10 LINE",
"675 10 LINE",
"675 545 LINE",
"140 545 LINE"
);
}
);
width = 815;
}
);
leftKerningGroup = n;
rightKerningGroup = n;
unicode = 25FB;
},
{
glyphname = upWhiteTriangle;
layers = (
{
layerId = master01;
paths = (
{
closed = 0;
nodes = (
"30 10 LINE",
"789 10 LINE",
"410 670 LINE",
"31 12 LINE"
);
}
);
width = 819;
}
);
leftKerningGroup = A;
rightKerningGroup = A;
unicode = 25B3;
},
{
glyphname = upWhiteSmallTriangle;
layers = (
{
layerId = master01;
paths = (
{
closed = 0;
nodes = (
"20 10 LINE",
"645 10 LINE",
"332 545 LINE",
"21 12 LINE"
);
}
);
width = 665;
}
);
unicode = 25B5;
},
{
glyphname = lowerLeftBlackTriangle;
layers = (
{
layerId = master01;
paths = (
{
closed = 0;
nodes = (
"61 278 LINE",
"334 0 LINE",
"609 278 LINE",
"335 555 LINE",
"60 278 LINE"
);
}
);
width = 669;
}
);
unicode = 25E3;
},
{
glyphname = dieresiscomb;
layers = (
{
anchors = (
{
name = _top;
position = "{81, 555}";
},
{
name = top;
position = "{81, 745}";
}
);
layerId = master01;
paths = (
{
closed = 0;
nodes = (
"152 660 LINE",
"152 785 LINE"
);
},
{
closed = 0;
nodes = (
"10 660 LINE",
"10 785 LINE"
);
}
);
width = 162;
}
);
unicode = 0308;
},
{
glyphname = dotaccentcomb;
layers = (
{
anchors = (
{
name = _top;
position = "{40, 555}";
},
{
name = top;
position = "{40, 745}";
}
);
layerId = master01;
paths = (
{
closed = 0;
nodes = (
"40 678 LINE",
"40 785 LINE"
);
}
);
width = 80;
},
{
anchors = (
{
name = _top;
position = "{41, 555}";
},
{
name = top;
position = "{41, 745}";
}
);
associatedMasterId = master01;
layerId = "46855446-C069-492F-B78D-1FC8F929EB72";
name = "Sep 10 21, 11:12";
paths = (
{
closed = 0;
nodes = (
"41 680 LINE",
"41 785 LINE",
"40 786 LINE"
);
}
);
width = 81;
}
);
unicode = 0307;
},
{
glyphname = acutecomb;
layers = (
{
anchors = (
{
name = _top;
position = "{78, 555}";
},
{
name = top;
position = "{78, 790}";
}
);
background = {
paths = (
{
closed = 0;
nodes = (
"0 657 LINE",
"127 782 LINE"
);
}
);
};
layerId = master01;
paths = (
{
closed = 0;
nodes = (
"10 657 LINE",
"145 790 LINE"
);
}
);
width = 155;
}
);
unicode = 0301;
},
{
glyphname = hungarumlautcomb;
layers = (
{
anchors = (
{
name = _top;
position = "{137, 555}";
},
{
name = top;
position = "{147, 782}";
}
);
layerId = master01;
paths = (
{
closed = 0;
nodes = (
"157 657 LINE",
"284 782 LINE"
);
},
{
closed = 0;
nodes = (
"10 657 LINE",
"137 782 LINE"
);
}
);
width = 294;
}
);
unicode = 030B;
},
{
glyphname = caroncomb.alt;
layers = (
{
anchors = (
{
name = _topright;
position = "{107, 774}";
}
);
layerId = master01;
paths = (
{
closed = 0;
nodes = (
"50 607 LINE",
"107 690 LINE",
"107 774 LINE"
);
}
);
width = 137;
}
);
},
{
glyphname = circumflexcomb;
layers = (
{
anchors = (
{
name = _top;
position = "{121, 555}";
}
);
background = {
paths = (
{
closed = 0;
nodes = (
"222 648 LINE",
"113 774 LINE",
"109 774 LINE",
"0 648 LINE"
);
}
);
};
guideLines = (
{
position = "{159, -64}";
}
);
layerId = master01;
paths = (
{
closed = 0;
nodes = (
"232 648 LINE",
"123 774 LINE",
"119 774 LINE",
"10 648 LINE"
);
}
);
width = 242;
}
);
unicode = 0302;
},
{
glyphname = brevecomb;
layers = (
{
anchors = (
{
name = _top;
position = "{130, 555}";
},
{
name = top;
position = "{130, 762}";
}
);
layerId = master01;
paths = (
{
closed = 0;
nodes = (
"10 762 LINE",
"10 707 OFFCURVE",
"62 680 OFFCURVE",
"128 680 CURVE SMOOTH",
"194 680 OFFCURVE",
"250 706 OFFCURVE",
"250 761 CURVE SMOOTH"
);
}
);
width = 260;
}
);
unicode = 0306;
},
{
glyphname = ringcomb;
layers = (
{
anchors = (
{
name = _top;
position = "{84, 555}";
},
{
name = top;
position = "{84, 791}";
}
);
layerId = master01;
paths = (
{
closed = 0;
nodes = (
"83 791 LINE",
"42 791 OFFCURVE",
"10 758 OFFCURVE",
"10 718 CURVE SMOOTH",
"10 678 OFFCURVE",
"43 645 OFFCURVE",
"83 645 CURVE SMOOTH",
"124 645 OFFCURVE",
"157 678 OFFCURVE",
"157 718 CURVE SMOOTH",
"157 758 OFFCURVE",
"124 791 OFFCURVE",
"83 791 CURVE"
);
}
);
width = 167;
}
);
unicode = 030A;
},
{
glyphname = tildecomb;
layers = (
{
anchors = (
{
name = _top;
position = "{149, 555}";
},
{
name = top;
position = "{149, 735}";
}
);
layerId = master01;
paths = (
{
closed = 0;
nodes = (
"10 687 LINE",
"32 724 OFFCURVE",
"59 735 OFFCURVE",
"84 735 CURVE SMOOTH",
"131 735 OFFCURVE",
"161 687 OFFCURVE",
"214 687 CURVE SMOOTH",
"239 687 OFFCURVE",
"265 696 OFFCURVE",
"288 734 CURVE"
);
}
);
width = 298;
}
);
unicode = 0303;
},
{
glyphname = macroncomb;
layers = (
{
anchors = (
{
name = _top;
position = "{121, 555}";
},
{
name = top;
position = "{121, 704}";
}
);
layerId = master01;
paths = (
{
closed = 0;
nodes = (
"231 703 LINE",
"10 703 LINE",
"10 704 LINE"
);
}
);
width = 241;
}
);
unicode = 0304;
},
{
glyphname = commaaccentcomb;
layers = (
{
anchors = (
{
name = _bottom;
position = "{59, 0}";
},
{
name = bottom;
position = "{49, -252}";
}
);
layerId = master01;
paths = (
{
closed = 0;
nodes = (
"10 -222 LINE",
"88 -67 LINE"
);
}
);
width = 98;
}
);
unicode = 0326;
},
{
glyphname = cedillacomb;
layers = (
{
anchors = (
{
name = _bottom;
position = "{90, 0}";
}
);
background = {
paths = (
{
closed = 1;
nodes = (
"-25 -200 OFFCURVE",
"22 -210 OFFCURVE",
"46 -210 CURVE SMOOTH",
"130 -210 OFFCURVE",
"157 -159 OFFCURVE",
"157 -127 CURVE SMOOTH",
"157 -81 OFFCURVE",
"125 -56 OFFCURVE",
"71 -56 CURVE SMOOTH",
"59 -56 OFFCURVE",
"53 -57 OFFCURVE",
"46 -60 CURVE",
"44 -58 LINE",
"89 0 LINE",
"52 0 LINE",
"-11 -82 LINE",
"6 -97 LINE",
"18 -91 OFFCURVE",
"31 -88 OFFCURVE",
"45 -88 CURVE SMOOTH",
"84 -88 OFFCURVE",
"99 -108 OFFCURVE",
"99 -129 CURVE SMOOTH",
"99 -154 OFFCURVE",
"76 -174 OFFCURVE",
"47 -174 CURVE SMOOTH",
"19 -174 OFFCURVE",
"-9 -168 OFFCURVE",
"-34 -156 CURVE",
"-48 -189 LINE"
);
}
);
};
layerId = master01;
paths = (
{
closed = 0;
nodes = (
"10 -177 LINE SMOOTH",
"23 -184 OFFCURVE",
"42 -191 OFFCURVE",
"71 -191 CURVE SMOOTH",
"123 -191 OFFCURVE",
"155 -168 OFFCURVE",
"155 -132 CURVE SMOOTH",
"155 -95 OFFCURVE",
"124 -78 OFFCURVE",
"70 -78 CURVE SMOOTH",
"44 -78 LINE",
"90 0 LINE"
);
}
);
width = 165;
}
);
unicode = 0327;
},
{
glyphname = ogonekcomb;
layers = (
{
anchors = (
{
name = _ogonek;
position = "{108, 0}";
}
);
layerId = master01;
paths = (
{
closed = 0;
nodes = (
"149 -184 LINE SMOOTH",
"136 -192 OFFCURVE",
"111 -200 OFFCURVE",
"87 -200 CURVE SMOOTH",
"37 -200 OFFCURVE",
"10 -175 OFFCURVE",
"10 -130 CURVE SMOOTH",
"10 -87 OFFCURVE",
"61 -38 OFFCURVE",
"108 0 CURVE"
);
}
);
width = 159;
}
);
unicode = 0328;
},
{
glyphname = dieresis;
layers = (
{
anchors = (
{
name = _top;
position = "{82, 555}";
},
{
name = top;
position = "{82, 777}";
}
);
background = {
paths = (
{
closed = 0;
nodes = (
"-19 734 LINE",
"-37 734 OFFCURVE",
"-50 720 OFFCURVE",
"-50 702 CURVE SMOOTH",
"-50 685 OFFCURVE",
"-36 671 OFFCURVE",
"-18 671 CURVE SMOOTH",
"-1 671 OFFCURVE",
"12 685 OFFCURVE",
"12 702 CURVE SMOOTH",
"12 720 OFFCURVE",
"-1 734 OFFCURVE",
"-18 734 CURVE"
);
},
{
closed = 0;
nodes = (
"163 734 LINE",
"146 734 OFFCURVE",
"132 720 OFFCURVE",
"132 702 CURVE SMOOTH",
"132 685 OFFCURVE",
"147 671 OFFCURVE",
"164 671 CURVE SMOOTH",
"182 671 OFFCURVE",
"194 685 OFFCURVE",
"194 702 CURVE SMOOTH",
"194 720 OFFCURVE",
"182 734 OFFCURVE",
"164 734 CURVE"
);
},
{
closed = 0;
nodes = (
"2 650 LINE",
"2 770 LINE",
"0 770 LINE"
);
},
{
closed = 0;
nodes = (
"144 650 LINE",
"144 770 LINE",
"142 770 LINE"
);
}
);
};
layerId = master01;
paths = (
{
closed = 0;
nodes = (
"154 650 LINE",
"154 780 LINE",
"152 780 LINE"
);
},
{
closed = 0;
nodes = (
"12 650 LINE",
"12 780 LINE",
"10 780 LINE"
);
}
);
width = 164;
}
);
unicode = 00A8;
},
{
glyphname = dotaccent;
layers = (
{
anchors = (
{
name = _top;
position = "{42, 555}";
},
{
name = top;
position = "{42, 745}";
}
);
background = {
paths = (
{
closed = 0;
nodes = (
"31 734 LINE",
"13 734 OFFCURVE",
"0 720 OFFCURVE",
"0 702 CURVE SMOOTH",
"0 685 OFFCURVE",
"14 671 OFFCURVE",
"32 671 CURVE SMOOTH",
"49 671 OFFCURVE",
"62 685 OFFCURVE",
"62 702 CURVE SMOOTH",
"62 720 OFFCURVE",
"49 734 OFFCURVE",
"32 734 CURVE"
);
}
);
};
layerId = master01;
paths = (
{
closed = 0;
nodes = (
"42 650 LINE",
"42 780 LINE",
"40 780 LINE"
);
}
);
width = 82;
}
);
unicode = 02D9;
},
{
glyphname = acute;
layers = (
{
anchors = (
{
name = _top;
position = "{74, 555}";
}
);
background = {
paths = (
{
closed = 1;
nodes = (
"25 660 LINE",
"76 660 LINE",
"210 801 LINE",
"134 801 LINE"
);
}
);
};
layerId = master01;
paths = (
{
closed = 0;
nodes = (
"10 657 LINE",
"137 782 LINE"
);
}
);
width = 147;
}
);
unicode = 00B4;
},
{
glyphname = hungarumlaut;
layers = (
{
anchors = (
{
name = _top;
position = "{137, 555}";
},
{
name = top;
position = "{147, 782}";
}
);
layerId = master01;
paths = (
{
closed = 0;
nodes = (
"157 657 LINE",
"284 782 LINE"
);
},
{
closed = 0;
nodes = (
"10 657 LINE",
"137 782 LINE"
);
}
);
width = 294;
}
);
unicode = 02DD;
},
{
glyphname = circumflex;
layers = (
{
anchors = (
{
name = _top;
position = "{121, 555}";
}
);
background = {
paths = (
{
closed = 1;
nodes = (
"150 660 LINE",
"212 660 LINE",
"106 801 LINE",
"36 801 LINE",
"-70 660 LINE",
"-8 660 LINE",
"71 765 LINE"
);
}
);
};
guideLines = (
{
position = "{159, -64}";
}
);
layerId = master01;
paths = (
{
closed = 0;
nodes = (
"232 648 LINE",
"123 774 LINE",
"119 774 LINE",
"10 648 LINE"
);
}
);
width = 242;
}
);
unicode = 02C6;
},
{
glyphname = breve;
layers = (
{
anchors = (
{
name = _top;
position = "{130, 555}";
},
{
name = top;
position = "{130, 762}";
}
);
layerId = master01;
paths = (
{
closed = 0;
nodes = (
"10 762 LINE",
"10 707 OFFCURVE",
"62 680 OFFCURVE",
"128 680 CURVE SMOOTH",
"194 680 OFFCURVE",
"250 706 OFFCURVE",
"250 761 CURVE SMOOTH"
);
}
);
width = 260;
}
);
unicode = 02D8;
},
{
glyphname = ring;
layers = (
{
anchors = (
{
name = _top;
position = "{84, 555}";
},
{
name = top;
position = "{84, 791}";
}
);
layerId = master01;
paths = (
{
closed = 0;
nodes = (
"83 791 LINE",
"42 791 OFFCURVE",
"10 758 OFFCURVE",
"10 718 CURVE SMOOTH",
"10 678 OFFCURVE",
"43 645 OFFCURVE",
"83 645 CURVE SMOOTH",
"124 645 OFFCURVE",
"157 678 OFFCURVE",
"157 718 CURVE SMOOTH",
"157 758 OFFCURVE",
"124 791 OFFCURVE",
"83 791 CURVE"
);
}
);
width = 167;
}
);
unicode = 02DA;
},
{
glyphname = tilde;
layers = (
{
anchors = (
{
name = _top;
position = "{146, 555}";
}
);
background = {
paths = (
{
closed = 1;
nodes = (
"240 751 OFFCURVE",
"225 724 OFFCURVE",
"198 724 CURVE SMOOTH",
"184 724 OFFCURVE",
"160 734 OFFCURVE",
"135 746 CURVE SMOOTH",
"110 758 OFFCURVE",
"83 770 OFFCURVE",
"61 770 CURVE SMOOTH",
"15 770 OFFCURVE",
"-22 737 OFFCURVE",
"-31 671 CURVE",
"8 671 LINE",
"13 713 OFFCURVE",
"37 720 OFFCURVE",
"51 720 CURVE SMOOTH",
"76 720 OFFCURVE",
"97 711 OFFCURVE",
"120 699 CURVE SMOOTH",
"143 688 OFFCURVE",
"168 676 OFFCURVE",
"198 676 CURVE SMOOTH",
"260 676 OFFCURVE",
"276 745 OFFCURVE",
"283 773 CURVE",
"244 773 LINE"
);
}
);
};
layerId = master01;
paths = (
{
closed = 0;
nodes = (
"10 667 LINE",
"32 704 OFFCURVE",
"59 715 OFFCURVE",
"84 715 CURVE SMOOTH",
"131 715 OFFCURVE",
"161 667 OFFCURVE",
"214 667 CURVE SMOOTH",
"239 667 OFFCURVE",
"265 676 OFFCURVE",
"288 714 CURVE"
);
}
);
width = 298;
}
);
unicode = 02DC;
},
{
glyphname = macron;
layers = (
{
anchors = (
{
name = _top;
position = "{121, 555}";
},
{
name = top;
position = "{121, 704}";
}
);
layerId = master01;
paths = (
{
closed = 0;
nodes = (
"231 703 LINE",
"10 703 LINE",
"10 704 LINE"
);
}
);
width = 241;
}
);
unicode = 00AF;
},
{
glyphname = cedilla;
layers = (
{
anchors = (
{
name = _bottom;
position = "{90, 0}";
}
);
background = {
paths = (
{
closed = 1;
nodes = (
"-25 -200 OFFCURVE",
"22 -210 OFFCURVE",
"46 -210 CURVE SMOOTH",
"130 -210 OFFCURVE",
"157 -159 OFFCURVE",
"157 -127 CURVE SMOOTH",
"157 -81 OFFCURVE",
"125 -56 OFFCURVE",
"71 -56 CURVE SMOOTH",
"59 -56 OFFCURVE",
"53 -57 OFFCURVE",
"46 -60 CURVE",
"44 -58 LINE",
"89 0 LINE",
"52 0 LINE",
"-11 -82 LINE",
"6 -97 LINE",
"18 -91 OFFCURVE",
"31 -88 OFFCURVE",
"45 -88 CURVE SMOOTH",
"84 -88 OFFCURVE",
"99 -108 OFFCURVE",
"99 -129 CURVE SMOOTH",
"99 -154 OFFCURVE",
"76 -174 OFFCURVE",
"47 -174 CURVE SMOOTH",
"19 -174 OFFCURVE",
"-9 -168 OFFCURVE",
"-34 -156 CURVE",
"-48 -189 LINE"
);
}
);
};
layerId = master01;
paths = (
{
closed = 0;
nodes = (
"10 -177 LINE SMOOTH",
"23 -184 OFFCURVE",
"42 -191 OFFCURVE",
"71 -191 CURVE SMOOTH",
"123 -191 OFFCURVE",
"155 -168 OFFCURVE",
"155 -132 CURVE SMOOTH",
"155 -95 OFFCURVE",
"124 -78 OFFCURVE",
"70 -78 CURVE SMOOTH",
"44 -78 LINE",
"90 0 LINE"
);
}
);
width = 165;
}
);
unicode = 00B8;
},
{
glyphname = ogonek;
layers = (
{
anchors = (
{
name = _ogonek;
position = "{108, 0}";
}
);
layerId = master01;
paths = (
{
closed = 0;
nodes = (
"149 -184 LINE SMOOTH",
"136 -192 OFFCURVE",
"111 -200 OFFCURVE",
"87 -200 CURVE SMOOTH",
"37 -200 OFFCURVE",
"10 -175 OFFCURVE",
"10 -130 CURVE SMOOTH",
"10 -87 OFFCURVE",
"61 -38 OFFCURVE",
"108 0 CURVE"
);
}
);
width = 159;
}
);
unicode = 02DB;
},
{
glyphname = caron.alt;
layers = (
{
anchors = (
{
name = _topright;
position = "{107, 774}";
}
);
layerId = master01;
paths = (
{
closed = 0;
nodes = (
"50 607 LINE",
"107 690 LINE",
"107 774 LINE"
);
}
);
width = 137;
}
);
},
{
export = 0;
glyphname = _module_g;
layers = (
{
background = {
paths = (
{
closed = 0;
nodes = (
"0 -107 LINE",
"34 -164 OFFCURVE",
"91 -190 OFFCURVE",
"167 -190 CURVE SMOOTH",
"280 -190 OFFCURVE",
"346 -126 OFFCURVE",
"346 -2 CURVE SMOOTH",
"346 555 LINE"
);
}
);
};
layerId = master01;
paths = (
{
closed = 0;
nodes = (
"0 -107 LINE",
"34 -164 OFFCURVE",
"91 -190 OFFCURVE",
"165 -190 CURVE SMOOTH",
"280 -190 OFFCURVE",
"346 -126 OFFCURVE",
"346 -2 CURVE SMOOTH",
"346 555 LINE"
);
}
);
width = 346;
}
);
},
{
export = 0;
glyphname = _module_n;
layers = (
{
background = {
paths = (
{
closed = 0;
nodes = (
"333 0 LINE",
"333 415 LINE SMOOTH",
"333 502 OFFCURVE",
"293 555 OFFCURVE",
"216 555 CURVE SMOOTH",
"127 555 OFFCURVE",
"61 485 OFFCURVE",
"0 415 CURVE"
);
}
);
};
layerId = master01;
paths = (
{
closed = 0;
nodes = (
"333 0 LINE",
"333 415 LINE SMOOTH",
"333 502 OFFCURVE",
"293 555 OFFCURVE",
"216 555 CURVE SMOOTH",
"127 555 OFFCURVE",
"61 485 OFFCURVE",
"0 415 CURVE"
);
}
);
width = 333;
}
);
},
